<svg width="78" height="32" viewBox="0 0 78 32" fill="none" xmlns="http://www.w3.org/2000/svg">
<g clip-path="url(#clip0_56_381)">
<g clip-path="url(#clip1_56_381)">
<path d="M0.853516 5.52V11.04L2.62152 11.0347L4.38685 11.0267L4.39485 10.072L4.40018 9.12H3.04018V1.92L3.71485 1.91467L4.38685 1.90667L4.39485 0.952L4.40018 0H0.853516V5.52ZM33.9255 0.952L33.9335 1.90667L34.5949 1.91467L35.2535 1.92V9.12H33.9202V11.04L35.6882 11.0347L37.4535 11.0267L37.4615 5.512L37.4669 0H33.9202L33.9255 0.952ZM4.68552 2.28533C4.67485 2.29333 4.66685 3.24 4.66685 4.384V6.46933L5.70152 7.496C6.30152 8.096 6.78418 8.55467 6.85352 8.59467C7.13885 8.75733 6.82152 8.74667 11.9255 8.74667H16.5868L16.5815 7.792L16.5735 6.84L12.4135 6.82667C8.52285 6.81333 8.24818 6.81067 8.16818 6.768C8.12285 6.74133 7.80552 6.448 7.46952 6.11733L6.85352 5.51467V2.26667H5.77885C5.18685 2.26667 4.69352 2.27467 4.68552 2.28533Z" fill="#9b99ff"/>
<path d="M7.11242 2.28531C7.10175 2.29331 7.09375 2.72531 7.09375 3.24531V4.18664H11.2084C14.0457 4.18664 15.3524 4.19464 15.4244 4.21598C15.5044 4.23731 15.6617 4.37598 16.1764 4.87464L16.8244 5.50664L16.8271 7.12531V8.74664H19.0137V4.54398L17.9817 3.51731C17.2297 2.77064 16.9097 2.47198 16.8084 2.41864C16.5124 2.26131 16.7177 2.26664 11.7177 2.26664C9.19508 2.26664 7.12042 2.27464 7.11242 2.28531ZM19.3071 3.22664V4.18664H23.9071L24.0404 4.25064C24.1391 4.29864 24.3258 4.46664 24.7657 4.90931L25.3604 5.50664L25.3657 6.05331L25.3737 6.59998H27.5604L27.5684 5.58664L27.5737 4.57331L26.5684 3.56531C26.0137 3.01064 25.5098 2.51998 25.4457 2.47731C25.3844 2.43198 25.2644 2.37064 25.1791 2.33864L25.0271 2.27998L22.1684 2.27198L19.3071 2.26398V3.22664Z" fill="#9b99ff"/>
<path d="M30.8244 6.12802C30.4804 6.46402 30.163 6.75735 30.115 6.78135C30.0377 6.82402 29.6004 6.82669 24.667 6.82669H19.307V8.74669H25.1684C29.019 8.74669 31.067 8.73602 31.1444 8.71735C31.4537 8.64802 31.5044 8.60535 32.6084 7.50669L33.6537 6.46669V5.52002H31.4484L30.8244 6.12802ZM0.533691 23.6267V32H3.09369V15.2534H0.533691V23.6267ZM4.90702 23.6267V32H38.6137L38.6084 23.6347L38.6004 15.2667L21.755 15.2587L4.90702 15.2534V23.6267ZM41.2457 15.2694C41.235 15.28 41.227 19.048 41.227 23.6454V32H41.8937L41.8884 23.6347L41.8804 15.2667L41.571 15.2587C41.403 15.256 41.2564 15.2614 41.2457 15.2694ZM43.2804 23.6267V32H44.5604V15.2534H43.2804V23.6267ZM45.9657 15.272C45.955 15.28 45.947 19.048 45.947 23.6454V32H48.9337V15.2534H47.459C46.6457 15.2534 45.9737 15.2614 45.9657 15.272ZM50.339 15.2694C50.3284 15.28 50.3204 19.048 50.3204 23.6454V32H50.987L50.9817 23.6347L50.9737 15.2667L50.6644 15.2587C50.4964 15.256 50.3497 15.2614 50.339 15.2694ZM52.3737 23.6267V32H55.3604L55.355 23.632L55.347 15.2667L53.8617 15.2587L52.3737 15.2534V23.6267ZM56.747 23.6267V32H64.027L64.0217 23.632L64.0137 15.2667L60.3817 15.2587L56.747 15.2534V23.6267ZM69.787 23.6267V32H77.067L77.0617 23.632L77.0537 15.2667L73.4217 15.2587L69.787 15.2534V23.6267Z" fill="#9b99ff"/>
</g>
</g>
<defs>
<clipPath id="clip0_56_381">
<rect width="76.8" height="32" fill="white" transform="translate(0.400391)"/>
</clipPath>
<clipPath id="clip1_56_381">
<rect width="76.5333" height="32" fill="white" transform="translate(0.533691)"/>
</clipPath>
</defs>
</svg>
