<svg width="144" height="33" viewBox="0 0 144 33" fill="none" xmlns="http://www.w3.org/2000/svg">
<g clip-path="url(#clip0_56_339)">
<g clip-path="url(#clip1_56_339)">
<mask id="mask0_56_339" style="mask-type:luminance" maskUnits="userSpaceOnUse" x="57" y="7" width="69" height="19">
<path d="M125.786 7.48494H57.6416V25.0306H125.786V7.48494Z" fill="white"/>
</mask>
<g mask="url(#mask0_56_339)">
<path d="M125.786 10.6425C125.541 10.6946 125.255 10.7274 125.26 10.906C125.057 10.8464 124.869 10.8018 124.705 10.74C124.577 10.6916 124.472 10.6529 124.31 10.7028C124.21 10.7348 124.167 10.7028 124.141 10.6604C124.122 10.6329 124.112 10.5956 124.034 10.5986C123.961 10.6009 123.95 10.6373 123.933 10.6656C123.834 10.8308 123.827 10.8316 123.483 10.7958C123.395 10.7869 123.27 10.7437 123.221 10.7988C123.17 10.8546 123.29 10.8844 123.394 10.9008C123.49 10.9121 123.578 10.9563 123.645 11.0258C123.686 11.0667 123.753 11.1129 123.704 11.1582C123.641 11.2156 123.53 11.1731 123.441 11.1724C123.107 11.1709 122.829 11.2468 122.55 11.319C122.419 11.354 122.297 11.3971 122.172 11.4373C122.102 11.4661 122.024 11.4716 121.95 11.4529C121.636 11.3488 121.344 11.4172 121.065 11.4857C120.949 11.514 120.807 11.4969 120.706 11.5542C120.525 11.6561 120.478 11.7811 120.626 11.927C120.672 11.9716 120.696 11.9932 120.568 12.0014C120.54 12.0029 120.493 12.0237 120.495 12.0334C120.542 12.2209 119.959 12.2396 120.033 12.4323C119.843 12.4885 119.664 12.5785 119.506 12.698C119.336 12.4673 119.257 12.2559 119.358 12.0356C119.393 11.9583 119.466 11.8861 119.604 11.8459C120.046 11.7164 120.328 11.4961 120.781 11.3733C120.857 11.3532 120.905 11.3019 120.946 11.2609C120.979 11.2275 121.069 11.1798 120.955 11.1516C120.865 11.1292 120.77 11.1664 120.743 11.2066C120.652 11.3413 120.357 11.3525 120.162 11.4641C120.162 11.4157 120.152 11.3979 120.164 11.3845C120.264 11.2632 120.22 11.2267 119.954 11.255C119.581 11.2952 119.264 11.3949 119.085 11.5601C119.021 11.6196 118.959 11.6278 118.854 11.6293C118.819 11.6293 118.783 11.6256 118.749 11.6219C118.436 11.5832 118.132 11.5378 117.8 11.6048C117.646 11.6323 117.488 11.6247 117.338 11.5824C117.205 11.5437 117.077 11.575 116.962 11.6055C116.431 11.7476 115.995 11.9463 115.57 12.1517C115.465 12.2038 115.48 12.2321 115.616 12.276C115.823 12.3422 115.989 12.3832 116.261 12.3341C116.445 12.3013 116.522 12.4182 116.533 12.4978C116.557 12.6868 116.473 12.8699 116.316 13.0418C116.109 13.2702 115.803 13.4675 115.448 13.6468C115.324 13.7093 115.189 13.7636 114.985 13.7063C114.879 13.6766 114.802 13.7212 114.737 13.7547C114.513 13.8701 114.299 13.9884 114.072 14.1022C113.993 14.1409 114.01 14.1744 114.045 14.2154C114.128 14.3136 114.218 14.4103 114.288 14.5108C114.36 14.615 114.188 14.7177 113.961 14.7162C113.845 14.7147 113.866 14.673 113.871 14.6433C113.89 14.5316 113.863 14.4319 113.639 14.3664C113.595 14.3538 113.55 14.3285 113.575 14.3024C113.648 14.2273 113.636 14.1737 113.45 14.1462C113.266 14.1179 113.102 14.1149 112.977 14.1997C112.952 14.2161 112.924 14.2317 112.879 14.2593C112.838 14.1916 112.932 14.1573 112.966 14.1149C112.987 14.0881 113.02 14.0591 112.967 14.0323C112.912 14.004 112.847 14.0196 112.794 14.0308C112.597 14.0717 112.422 14.1298 112.266 14.199C112.077 14.2831 112.1 14.3478 112.344 14.3969C112.571 14.4423 112.807 14.4453 113.106 14.4081C112.914 14.484 112.74 14.5168 112.615 14.5837C112.476 14.6574 112.446 14.7281 112.569 14.8115C112.645 14.8636 112.714 14.9179 112.784 14.9722C112.815 14.9968 112.854 15.0265 112.775 15.0481C112.5 15.124 112.692 15.1389 112.853 15.162C112.781 15.2118 112.607 15.2632 112.848 15.3168C112.914 15.3316 112.888 15.3822 112.845 15.4098C112.583 15.5839 112.434 15.7945 112.087 15.9419C111.911 16.0163 111.728 16.0729 111.491 16.0967C111.203 16.1264 110.913 16.1636 110.681 16.2604C110.63 16.2812 110.587 16.2723 110.54 16.2559C110.217 16.1421 110.142 16.3155 109.976 16.3728C109.805 16.4308 109.863 16.503 109.978 16.5692C110.3 16.7575 110.522 16.9622 110.514 17.2159C110.512 17.2866 110.493 17.3357 110.373 17.3789C110.176 17.4489 110.015 17.5411 109.756 17.6074C109.793 17.4399 109.47 17.3737 109.381 17.239C109.332 17.1668 109.102 17.1869 108.945 17.1839C108.808 17.1817 108.781 17.2345 108.73 17.2792C108.464 17.5173 108.786 17.6855 109.06 17.841C109.298 17.975 109.397 18.1246 109.461 18.2876C109.47 18.3114 109.491 18.3434 109.438 18.3575C109.371 18.3746 109.32 18.3478 109.277 18.3277C109.068 18.2258 108.913 18.1067 108.845 17.969C108.806 17.8787 108.741 17.8018 108.658 17.748C108.533 17.6662 108.53 17.5709 108.557 17.4794C108.633 17.2263 108.398 16.9971 108.329 16.756C108.314 16.7039 108.245 16.6823 108.146 16.7285C108.101 16.7486 108.052 16.7672 107.999 16.7828C107.812 16.8386 107.687 16.8133 107.724 16.7136C107.82 16.4539 107.384 16.3192 107.175 16.1309C107.141 16.1011 107.08 16.0967 107.015 16.1175C106.957 16.1361 106.893 16.1659 106.833 16.1651C106.434 16.1622 106.232 16.2924 106.012 16.4211C105.77 16.5664 105.512 16.6837 105.243 16.7709C105.02 16.8416 104.955 16.9324 104.957 17.0492C104.962 17.265 104.877 17.4697 104.569 17.6647C104.027 17.1765 103.576 16.6898 103.614 16.1324C103.44 16.1376 103.454 16.1889 103.414 16.218C103.341 16.2708 103.259 16.2678 103.171 16.2329C103.097 16.2031 103.039 16.1733 103.164 16.1354C103.311 16.0885 103.179 16.0602 103.112 16.0505C102.906 16.0211 102.706 15.9585 102.52 15.8652C102.412 15.8139 102.266 15.8131 102.123 15.8102C101.778 15.8042 101.432 15.8005 101.092 15.7692C101.013 15.7618 100.904 15.7603 100.876 15.7283C100.757 15.5966 100.536 15.6182 100.304 15.6159C100.068 15.6198 99.8363 15.5467 99.6449 15.4076C99.5668 15.3502 99.4923 15.2915 99.3532 15.2639C99.2537 15.2427 99.1502 15.2512 99.0555 15.2885C98.9468 15.3331 99.025 15.377 99.0748 15.412C99.31 15.5757 99.4514 15.7633 99.6523 15.9367C99.7208 15.9962 99.8004 15.9977 99.915 15.9791C100.164 15.9389 100.373 15.8727 100.55 15.7491C100.611 15.9129 100.838 15.991 101.077 16.0632C101.197 16.0989 101.217 16.1257 101.146 16.2016C100.842 16.5298 100.279 16.7099 99.6427 16.8565C99.2929 16.9383 98.9483 17.0254 98.5986 17.1065C98.3009 17.1757 98.1268 17.1445 98.1178 16.9934C98.1037 16.7612 97.9191 16.5789 97.6029 16.4129C97.5488 16.3889 97.5018 16.3515 97.4662 16.3042C97.4307 16.257 97.4078 16.2014 97.3997 16.1428C97.3848 16.0535 97.3468 15.9657 97.1288 15.9315C97.0388 15.9166 97.0358 15.8764 97.0187 15.8377C96.9591 15.7037 96.8386 15.5817 96.6689 15.4708C96.6428 15.4537 96.6056 15.4202 96.5915 15.4224C96.4488 15.4415 96.3037 15.4251 96.1688 15.3748C96.1398 15.3651 96.0996 15.4209 96.1212 15.4477C96.1635 15.5039 96.2136 15.5538 96.27 15.5958C96.5074 15.7707 96.6845 15.9597 96.8587 16.1495C96.8869 16.18 96.9242 16.215 96.9167 16.2463C96.8557 16.5097 97.2367 16.6771 97.5002 16.8699C97.6974 17.0142 97.9348 17.1437 98.1074 17.2985C98.2228 17.402 98.452 17.4384 98.7072 17.4109C99.025 17.3774 99.3435 17.3462 99.6888 17.3112C99.4789 17.4392 99.4641 17.5888 99.3398 17.7182C99.0436 18.0256 98.6923 18.3069 98.1238 18.5227C97.774 18.6552 97.5545 18.8435 97.355 19.0355C97.1615 19.2222 97.323 19.3994 97.4168 19.5757C97.4607 19.6576 97.5232 19.7372 97.5508 19.8206C97.6393 20.0937 97.5374 20.3274 96.9673 20.4665C96.8668 20.4911 96.7842 20.5335 96.6964 20.5685C96.5163 20.6414 96.4203 20.7151 96.5171 20.8438C96.6362 21.0031 96.6629 21.1698 96.2596 21.2717C96.1294 21.3052 96.0884 21.3744 96.0721 21.4459C96.0088 21.7376 95.6501 21.9512 95.2475 22.1521C95.1277 22.2116 94.961 22.2384 94.7973 22.2541C94.4594 22.2853 94.1171 22.3084 93.777 22.3359C93.5909 22.3508 93.454 22.3062 93.3268 22.2503C93.2806 22.2302 93.2233 22.1975 93.2806 22.1744C93.4897 22.0889 93.3327 22.0107 93.265 21.9363C93.0752 21.7264 92.8162 21.5315 92.7106 21.306C92.5736 21.0135 92.4776 20.7181 92.2224 20.4382C92.0877 20.2909 92.2626 20.1287 92.3839 19.9843C92.5952 19.7342 92.5156 19.508 92.2775 19.2684C92.1279 19.1196 91.9842 18.9729 91.7744 18.8412C91.7074 18.7996 91.7074 18.746 91.7089 18.6946C91.7141 18.5369 91.726 18.3806 91.7215 18.2236C91.7186 18.0941 91.6196 18.0546 91.3569 18.0747C91.1731 18.0896 91.0339 18.0911 90.9126 17.9996C90.7764 17.8961 90.5316 17.8649 90.3002 17.9125C89.7495 18.0256 89.1526 17.9981 88.5863 18.0576C88.2202 18.0963 87.499 17.7971 87.4648 17.655C87.4455 17.5739 87.3681 17.5114 87.2765 17.4489C87.0949 17.3238 86.9149 17.1988 86.7318 17.0745C86.6894 17.0455 86.6514 17.0172 86.6856 16.9815C86.8858 16.7716 86.8285 16.5484 86.83 16.3296C86.8308 16.1703 86.8657 16.0319 87.1135 15.8995C87.3874 15.7529 87.5712 15.5713 87.9135 15.4455C88.0877 15.3822 88.1837 15.2788 88.1524 15.1627C88.1256 15.0645 88.2045 14.9886 88.3749 14.9342C88.5491 14.8792 88.6778 14.807 88.7589 14.7132C88.8014 14.6634 88.8587 14.6165 88.9852 14.6812C89.0522 14.7147 89.1489 14.711 89.2367 14.7036C89.3491 14.6931 89.4667 14.6857 89.5716 14.6656C90.2027 14.5443 90.865 14.5041 91.537 14.4803C91.8994 14.4676 92.0624 14.5465 91.9508 14.7132C91.8689 14.8353 91.9619 14.9112 92.1748 14.9447C92.5409 15.0042 92.852 15.1084 93.1861 15.194C93.6088 15.3019 93.6735 15.258 93.8001 15.1091C93.8834 15.0109 94.0322 14.9789 94.2495 15.0176C94.481 15.0585 94.7199 15.0905 94.9536 15.1292C95.182 15.1679 95.4075 15.1962 95.6509 15.1545C95.7626 15.1395 95.8762 15.1471 95.985 15.1769C96.1889 15.2267 96.3333 15.1865 96.4255 15.1017C96.6079 14.935 96.689 14.7519 96.7582 14.5689C96.788 14.49 96.6935 14.4654 96.5528 14.4922C96.372 14.5223 96.1876 14.5233 96.0066 14.4952C95.9032 14.4845 95.7989 14.4872 95.6962 14.5034C95.4953 14.5294 95.2907 14.5004 95.1798 14.4185C95.06 14.3292 95.0354 14.2198 95.083 14.1119C95.086 14.1045 95.1031 14.0963 95.118 14.0941C95.5236 14.0353 95.8756 13.9125 96.2976 13.8753C96.4412 13.8626 96.5774 13.8857 96.7091 13.9125C96.98 13.9713 97.2575 13.9943 97.5344 13.9809C97.6609 13.9735 97.7569 13.9482 97.8105 13.8961C97.8737 13.8343 97.7896 13.7889 97.7041 13.7517C97.5478 13.6833 97.3826 13.6185 97.2211 13.553C97.1095 13.5076 97.0425 13.4623 97.1601 13.393C97.2107 13.3633 97.2665 13.3171 97.1943 13.2769C97.1251 13.2383 97.0246 13.2591 96.945 13.2695C96.8267 13.2844 96.7128 13.3089 96.6004 13.3335C96.5163 13.3514 96.4724 13.3774 96.5535 13.4206C96.5975 13.4436 96.6905 13.4667 96.6369 13.5024C96.5937 13.5322 96.5074 13.5196 96.4412 13.5047C96.3556 13.4853 96.2492 13.4786 96.244 13.4176C96.2335 13.2963 96.0929 13.2516 95.8979 13.3209C95.5176 13.4563 95.2527 13.6282 95.2788 13.8723C95.2892 13.9698 95.1865 14.0345 94.9826 14.0249C94.7703 14.0159 94.558 14.041 94.3537 14.0993C94.1878 14.1439 94.3269 14.1878 94.3761 14.2198C94.5792 14.3538 94.5748 14.3791 94.2845 14.4542C94.2354 14.4669 94.1647 14.5101 94.1163 14.4587C94.0843 14.4245 94.1186 14.3932 94.2079 14.3828C94.2838 14.3731 94.3798 14.362 94.3508 14.3121C94.3307 14.2771 94.2719 14.2451 94.1602 14.2615C94.1498 14.2957 94.3173 14.2838 94.2488 14.3248C94.2094 14.3486 94.1506 14.327 94.1111 14.3099C93.9377 14.228 93.7911 14.1387 93.716 14.0271C93.643 13.9184 93.5113 13.8291 93.3119 13.7674C93.0283 13.6796 92.8594 13.5307 92.5588 13.4518C92.4962 13.4362 92.4881 13.3625 92.3668 13.4198C92.2789 13.4622 92.2276 13.4987 92.3035 13.5627C92.5163 13.7413 92.7403 13.9125 93.1563 14.0003C93.2427 14.0189 93.3349 14.0397 93.3945 14.0911C93.3082 14.1089 93.1184 14.0182 93.1355 14.1417C93.1437 14.2012 93.2047 14.2675 93.0559 14.3337C93.0834 14.1536 92.8817 14.0702 92.587 14.0048C92.3109 13.943 92.1182 13.8254 91.9366 13.7101C91.7759 13.6081 91.5928 13.585 91.3629 13.6535C91.23 13.6892 91.0921 13.702 90.955 13.6915C90.7251 13.6796 90.5703 13.7227 90.5509 13.8403C90.5331 13.9437 90.3634 13.9772 90.2116 14.0174C90.0352 14.0643 89.8961 14.1104 89.8916 14.2258C89.8871 14.3218 89.7279 14.3821 89.5403 14.4141C89.358 14.4461 89.1749 14.4766 88.9919 14.5071C88.9666 14.5116 88.9346 14.519 88.9152 14.5145C88.7269 14.4766 88.5483 14.426 88.3712 14.3791C88.1673 14.3248 88.1867 14.2183 88.2633 14.1179C88.3415 14.0152 88.3028 13.9073 88.3005 13.8016C88.299 13.7272 88.3482 13.6974 88.5141 13.6959C88.7909 13.6944 89.0611 13.7175 89.3342 13.7264C89.6021 13.7361 89.7614 13.6691 89.7547 13.5404C89.7465 13.3767 89.6252 13.2353 89.3089 13.1475C89.2546 13.1326 89.1526 13.1236 89.1906 13.079C89.2174 13.047 89.3022 13.0626 89.358 13.0656C89.4734 13.073 89.5723 13.0716 89.6103 13.0061C89.6155 12.9986 89.6267 12.986 89.6378 12.9852C90.0442 12.9651 90.2458 12.7821 90.5867 12.7121C90.6708 12.695 90.772 12.6838 90.7965 12.6436C90.9 12.4665 91.2073 12.4301 91.5139 12.4077C91.6955 12.3943 91.7349 12.3616 91.7156 12.2849C91.6953 12.2148 91.6855 12.1421 91.6866 12.0691C91.6881 12.0334 91.7223 11.9843 91.8265 11.9947C91.9455 12.0051 91.8964 12.0557 91.8756 12.0877C91.8309 12.1592 91.7803 12.2262 91.9255 12.2857C92.0159 12.3263 92.1158 12.3415 92.2142 12.3296C92.369 12.311 92.5342 12.2656 92.622 12.3832C92.6466 12.4152 92.7336 12.3876 92.7865 12.3757C92.9234 12.346 93.0551 12.311 93.1935 12.2835C93.2717 12.2678 93.3498 12.247 93.4458 12.2574C93.835 12.2998 94.0486 12.2165 94.0516 12.0208C94.0523 11.9724 94.0575 11.924 94.1521 11.8972C94.2495 11.8697 94.3165 11.9062 94.3835 11.9344C94.4296 11.9538 94.481 11.9791 94.5457 11.956C94.6127 11.9315 94.6373 11.8942 94.6321 11.8541C94.6261 11.8183 94.574 11.793 94.5383 11.7648C94.4267 11.6732 94.4907 11.6189 94.7206 11.6055L95.4574 11.5623C95.5191 11.5586 95.5898 11.5542 95.5921 11.5155C95.595 11.4812 95.534 11.4634 95.4775 11.4522C95.2728 11.4098 95.0607 11.4276 94.8501 11.4396C94.7898 11.4433 94.7318 11.4589 94.6708 11.4619C94.5011 11.4708 94.324 11.5601 94.1632 11.4596C94.0345 11.38 94.0494 11.1821 94.1915 11.098C94.3307 11.0161 94.4877 10.9417 94.6328 10.8606C94.7057 10.8196 94.8114 10.7772 94.7221 10.7169C94.6298 10.6537 94.4959 10.641 94.3441 10.6634C94.1655 10.6902 94.0546 10.7482 94.0308 10.8345C94.0077 10.9216 93.9087 10.9677 93.7547 11.0049C93.5061 11.0645 93.332 11.153 93.2977 11.2952C93.2791 11.3741 93.3126 11.4396 93.4242 11.4939C93.5701 11.5653 93.4838 11.6479 93.3811 11.6755C93.169 11.7328 93.1333 11.8124 93.1511 11.9091C93.1653 11.9821 93.1296 12.0245 92.9584 12.0215C92.9175 12.0215 92.8735 12.0327 92.8326 12.0401C92.5826 12.0848 92.4144 12.0468 92.3258 11.927C92.2968 11.8876 92.273 11.8459 92.238 11.8079C92.174 11.7372 92.1405 11.6405 92.0274 11.607C91.8793 11.5646 91.7848 11.6717 91.6583 11.706C91.3338 11.7938 91.1962 11.7454 91.1299 11.572C91.0548 11.3726 91.0897 11.2282 91.4879 11.1106C91.6203 11.0712 91.6709 11.0109 91.8466 11.0637C91.9329 11.0898 92.0162 11.0563 92.0743 11.0228C92.1733 10.9648 92.1636 10.8926 92.0802 10.8442C91.9247 10.7549 92.0334 10.7378 92.1896 10.7177C92.2395 10.7117 92.3243 10.6998 92.3258 10.6872C92.3526 10.5517 92.6399 10.5458 92.7828 10.4714C92.9152 10.4007 93.0336 10.3285 93.2211 10.2831C93.326 10.2578 93.2352 10.1908 93.2159 10.1328C93.4302 10.1476 93.6274 10.1179 93.8015 10.0747C93.9995 10.0256 94.1766 9.96309 94.4177 9.97574C94.4773 9.97797 94.4996 9.94151 94.5294 9.91323C94.5829 9.86113 94.8025 9.86039 94.8687 9.90876C94.929 9.95267 94.9669 9.90727 95.0138 9.90355C95.2512 9.88569 95.467 9.92141 95.6821 9.96532C95.6657 10.0055 95.4901 9.99806 95.5377 10.0516C95.5779 10.0978 95.694 10.0836 95.7788 10.0814C96.4873 10.0554 97.0298 10.2444 97.5917 10.4044C97.7696 10.4542 97.748 10.5175 97.5537 10.5622C97.294 10.6217 97.0224 10.6172 96.7522 10.5756C96.6942 10.5666 96.6384 10.5517 96.5788 10.5443C96.4635 10.5294 96.3206 10.4803 96.2358 10.5369C96.1591 10.5867 96.3422 10.6076 96.3816 10.6507C96.4166 10.6894 96.468 10.7244 96.5044 10.7623C96.5565 10.8174 96.6168 10.8695 96.7262 10.9022C96.8497 10.9395 96.9941 11.0049 97.1258 10.9365C97.2516 10.8717 96.9978 10.8546 96.9919 10.7966C97.0693 10.7802 97.1273 10.8055 97.1883 10.8189C97.3945 10.8636 97.5441 10.8725 97.6252 10.7348C97.6743 10.6507 97.8715 10.618 98.0568 10.6142C98.3604 10.6083 98.4118 10.5815 98.3597 10.4483C98.3381 10.3917 98.2153 10.3129 98.3054 10.2861C98.4319 10.2489 98.5718 10.3188 98.6998 10.3516C98.7057 10.353 98.7095 10.359 98.7139 10.362C98.7281 10.4178 98.4229 10.3917 98.5777 10.4833C98.6342 10.5143 98.6972 10.5313 98.7616 10.5328C98.8259 10.5344 98.8897 10.5205 98.9476 10.4922C99.2468 10.3523 99.6427 10.3166 100.01 10.2489C100.069 10.2377 100.146 10.2176 100.175 10.2518C100.277 10.3739 100.441 10.3143 100.586 10.2861C100.757 10.2526 100.92 10.2102 101.095 10.17C101.154 10.1923 101.01 10.2392 101.127 10.2578C101.218 10.2727 101.307 10.2704 101.372 10.2347C101.537 10.1439 101.718 10.0822 101.993 10.1075C102.221 10.1283 102.442 10.1506 102.637 10.2146C102.688 10.231 102.742 10.2481 102.8 10.2563C102.876 10.2667 102.958 10.2697 103.013 10.2288C103.061 10.193 103.027 10.1618 102.985 10.1357C102.897 10.0822 102.799 10.033 102.711 9.9802C102.616 9.92365 102.585 9.87006 102.744 9.82244C102.856 9.79363 102.956 9.73128 103.03 9.64383C103.121 9.5322 103.296 9.52923 103.487 9.55751C103.683 9.58727 103.627 9.65872 103.585 9.72569C103.556 9.77555 103.573 9.82467 103.608 9.87453C103.737 10.065 103.67 10.2526 103.55 10.4371C103.506 10.5056 103.435 10.5689 103.258 10.487C103.189 10.455 103.092 10.4587 103.007 10.4758C102.939 10.4892 102.917 10.5093 102.981 10.5428C103.154 10.6343 103.44 10.6485 103.643 10.5718C103.83 10.5011 103.938 10.4044 104.046 10.3062C104.093 10.2637 104.122 10.2005 104.261 10.2131C104.384 10.2236 104.458 10.2682 104.483 10.3262C104.514 10.3977 104.583 10.452 104.734 10.4773C104.799 10.4877 104.856 10.4907 104.904 10.4647C104.979 10.4237 104.881 10.4163 104.842 10.4007C104.798 10.3851 104.76 10.3556 104.734 10.3166C104.661 10.1953 104.479 10.1231 104.227 10.103C104.037 10.0889 103.963 10.0569 103.914 9.95937C103.845 9.8269 103.853 9.72271 104.086 9.62895C104.158 9.74653 104.292 9.84104 104.553 9.87751C104.618 9.88718 104.702 9.90727 104.749 9.87155C104.8 9.83285 104.711 9.81425 104.661 9.79267C104.586 9.75918 104.506 9.72644 104.397 9.68104C104.691 9.7056 104.949 9.64383 105.202 9.71453C105.354 9.75769 105.505 9.78523 105.485 9.88792C105.476 9.93555 105.526 9.95937 105.627 9.95862C105.756 9.95713 105.761 9.91248 105.751 9.86932C105.723 9.75546 105.607 9.66467 105.381 9.62597C105.244 9.6029 105.191 9.57016 105.211 9.5069C105.234 9.43099 105.365 9.44588 105.462 9.44811C105.71 9.45406 105.956 9.46597 106.203 9.47639C106.26 9.47862 106.326 9.50764 106.372 9.47416C106.416 9.44141 106.386 9.40569 106.329 9.38188C106.071 9.27546 106.288 9.23602 106.451 9.22188C107.036 9.17202 107.609 9.0723 108.219 9.11471C108.288 9.1181 108.358 9.1131 108.426 9.09983C108.65 9.05741 108.874 9.02244 109.121 9.03955C109.182 9.04402 109.238 9.03806 109.233 8.99192C109.211 8.78876 109.426 8.71285 109.82 8.78058C109.829 8.82597 109.69 8.82448 109.698 8.86913C109.986 8.95695 110.294 8.99192 110.628 8.93983C110.88 8.90039 111.079 8.9882 111.295 8.99788C111.368 9.19137 111.09 9.2122 110.795 9.25834C110.517 9.30299 110.277 9.40123 110.023 9.47713C109.988 9.48755 109.943 9.50244 109.962 9.52774C109.981 9.55155 110.034 9.54709 110.075 9.55081C110.364 9.57983 110.611 9.5203 110.867 9.46746C110.881 9.41537 110.752 9.41165 110.725 9.37444C110.831 9.33499 110.939 9.38709 111.042 9.36178C110.986 9.31639 110.872 9.33053 110.797 9.30523C111.16 9.23974 111.163 9.23899 111.329 9.39974C111.393 9.46076 111.445 9.48085 111.612 9.45778C111.875 9.42132 112.138 9.41313 112.417 9.49499C112.658 9.56792 112.979 9.55676 113.258 9.49351C113.493 9.43992 113.738 9.43918 113.985 9.45257C114.103 9.45853 114.203 9.48755 114.241 9.5523C114.189 9.59844 114.003 9.55304 113.999 9.61778C113.995 9.66988 114.104 9.70262 114.182 9.73685C114.279 9.78002 114.379 9.82244 114.485 9.86039C114.746 9.95565 114.773 9.95267 114.971 9.82913C114.994 9.81491 115.019 9.80436 115.045 9.79788C115.304 9.88271 115.582 9.75099 115.862 9.82392C116.123 9.89165 116.372 9.81499 116.427 9.67509C116.452 9.6096 116.526 9.60588 116.634 9.6096C116.81 9.6163 116.987 9.62151 117.164 9.62299C117.475 9.62597 117.475 9.62523 117.345 9.76439C117.514 9.77853 117.626 9.72048 117.76 9.69741C117.954 9.66467 118.098 9.63118 118.247 9.76216C118.338 9.84104 118.594 9.89983 118.845 9.90355C119.163 9.90876 119.478 9.87006 119.799 9.88941C119.942 9.89834 120.057 9.91471 120.081 9.99583C120.106 10.0762 120.25 10.0926 120.379 10.0978C120.599 10.1082 120.821 10.1097 121.042 10.1097C121.302 10.1097 121.549 10.129 121.789 10.1819C122.093 10.2496 122.139 10.231 122.111 10.0702L122.1 10.0085C122.884 10.0814 123.692 10.0769 124.398 10.2786C124.613 10.3404 124.825 10.4022 124.872 10.5346C124.881 10.5607 124.9 10.5867 124.966 10.5875C125.017 10.5875 125.041 10.5666 125.052 10.545C125.101 10.4528 125.228 10.4669 125.359 10.4952C125.504 10.5249 125.645 10.5592 125.788 10.5919V10.6425H125.786ZM99.8317 13.9914C99.8592 13.8373 99.7074 13.7517 99.5787 13.6572C99.4856 13.5903 99.627 13.4593 99.8049 13.4474C99.9448 13.4369 99.9612 13.4049 99.9493 13.3529C99.9374 13.2963 99.854 13.2859 99.758 13.2918C99.5577 13.3012 99.3593 13.3362 99.1679 13.396C99.0123 13.4444 98.9595 13.5091 99.0019 13.591C99.06 13.7063 99.1083 13.8314 99.2683 13.9192C99.4388 14.0137 99.4202 14.0956 99.3338 14.1945C99.2743 14.2645 99.211 14.3359 99.3539 14.4066C99.5139 14.4855 99.7022 14.5019 99.9128 14.4773C99.9939 14.4676 100.12 14.4654 100.111 14.4103C100.093 14.3062 100.173 14.1901 99.9753 14.1037C99.8868 14.065 99.9128 14.039 100.013 14.0219C100.079 14.0115 100.145 14.0025 100.21 13.9936C100.149 13.8641 100.017 13.9043 99.8317 13.9914ZM96.1651 11.4775C96.1167 11.3756 96.0073 11.3116 95.7885 11.3175C95.7 11.3197 95.6888 11.3577 95.7044 11.3942C95.761 11.5281 95.9604 11.4939 96.1651 11.4775ZM101.405 13.4667C101.388 13.4414 101.426 13.3849 101.319 13.396C101.165 13.4124 101.103 13.4801 101.076 13.5478C101.059 13.5888 101.11 13.6364 101.199 13.6282C101.367 13.6133 101.394 13.5404 101.405 13.4667ZM78.9975 12.2924C78.8389 12.3266 78.6975 12.3303 78.606 12.3817C78.574 12.4003 78.5175 12.4174 78.5606 12.4464C78.5882 12.4643 78.6343 12.468 78.6804 12.4628C78.7921 12.4509 78.9037 12.4368 79.0161 12.4256C79.1448 12.4122 79.2847 12.4062 79.3078 12.4874C79.3309 12.5662 79.4157 12.6667 79.1768 12.7062C78.7757 12.7716 78.3783 12.8453 77.9407 12.8334C77.5318 12.8191 77.1264 12.9133 76.7656 13.1065C76.715 13.1326 76.6235 13.1698 76.6882 13.2033C76.7694 13.2435 76.8497 13.1966 76.9115 13.1705C77.0804 13.0976 77.2732 13.0492 77.492 13.0239C77.5813 13.0135 77.6869 13.0046 77.7242 13.0522C77.771 13.114 77.649 13.1192 77.5664 13.1266C77.3863 13.1408 77.4213 13.1832 77.5069 13.2278C77.6096 13.2807 77.684 13.3618 77.8871 13.3372C77.9018 13.3355 77.9167 13.3365 77.931 13.3402C78.0829 13.524 78.2384 13.3982 78.3932 13.3424C78.4475 13.3231 78.5227 13.2874 78.5681 13.3283C78.6202 13.3759 78.4899 13.3543 78.4587 13.3722C78.2116 13.5062 77.8254 13.5382 77.5381 13.6796C77.5366 13.5374 77.7286 13.4935 77.9102 13.4489C77.8449 13.4143 77.7694 13.4042 77.6974 13.4206C77.3833 13.4756 77.0611 13.5248 76.7664 13.5977C76.5967 13.6401 76.4732 13.7264 76.5818 13.8351C76.6384 13.8916 76.5766 13.9214 76.4791 13.9244C76.0028 13.9393 75.8897 14.1216 75.7193 14.2838C75.7193 14.2838 75.6933 14.2838 75.6851 14.2794C75.636 14.2481 75.6479 14.1774 75.5392 14.1916C75.4425 14.2042 75.4492 14.2682 75.4544 14.3143C75.4655 14.4222 75.6189 14.5331 75.435 14.6366C75.2237 14.7549 75.0228 14.8792 74.7854 14.9841C74.5361 15.095 74.4929 15.2111 74.5986 15.3592C74.6834 15.4782 74.7385 15.604 74.801 15.7268C74.8144 15.7536 74.8375 15.7908 74.7712 15.8087C74.7404 15.816 74.7084 15.8169 74.6771 15.8114C74.6459 15.8059 74.6161 15.7941 74.5896 15.7767C74.4991 15.7292 74.4274 15.6523 74.3865 15.5586C74.2711 15.319 73.7338 15.1761 73.2561 15.2572C73.0849 15.287 73.0551 15.3294 73.134 15.4336C72.8795 15.4343 72.6458 15.3919 72.4055 15.3666C71.9865 15.3235 71.5407 15.4939 71.5109 15.697C71.4908 15.8347 71.3904 15.9687 71.4588 16.1108C71.5035 16.2061 71.5482 16.2998 71.6523 16.3862C71.8838 16.5752 72.1896 16.6265 72.619 16.5499C72.7329 16.5283 72.788 16.4933 72.7954 16.4353C72.8021 16.3884 72.8319 16.3422 72.9033 16.3088C73.0447 16.2418 73.2397 16.2046 73.4094 16.2396C73.5619 16.2708 73.4719 16.3586 73.4399 16.4211C73.3908 16.5156 73.3223 16.6072 73.2762 16.7017C73.236 16.7836 73.2747 16.8282 73.492 16.8401C74.2882 16.8848 74.2079 16.8476 74.1416 17.2159C74.1171 17.3551 74.2458 17.4518 74.4468 17.5367C74.5361 17.5746 74.6388 17.5687 74.7467 17.5516C74.9781 17.5151 75.1954 17.5129 75.3733 17.6141C75.435 17.649 75.5444 17.6699 75.5638 17.5992C75.6263 17.3737 76.1175 17.3722 76.3712 17.2055C76.3757 17.3075 76.2388 17.3491 76.2462 17.4139C76.2522 17.4682 76.2916 17.5255 76.4047 17.53C76.5297 17.5367 76.5156 17.4756 76.5015 17.4362C76.4769 17.367 76.6064 17.3424 76.6652 17.2993C76.7924 17.2077 76.8319 17.3238 76.9197 17.3335C77.2479 17.3729 77.5552 17.457 77.9154 17.4198C78.0598 17.4049 78.1483 17.4258 78.2466 17.4987C78.4482 17.6468 78.7333 17.7666 79.025 17.8782C79.1165 17.9125 79.2282 17.9229 79.3472 17.9274C79.8235 17.946 80.0029 18.0702 80.2261 18.2608C80.4203 18.4267 80.2254 18.4796 80.0728 18.5718C79.9939 18.6195 79.9091 18.6686 79.886 18.7452C80.0981 18.7214 80.212 18.6462 80.3645 18.6016C80.4248 18.5845 80.5007 18.5361 80.5677 18.5793C80.6354 18.6239 80.5446 18.6559 80.4739 18.682C80.4538 18.6894 80.4226 18.6894 80.4025 18.6976C80.3422 18.7214 80.18 18.7125 80.2343 18.7698C80.2752 18.8129 80.4092 18.8144 80.5201 18.7996C80.6406 18.7832 80.7121 18.7393 80.7872 18.6983C80.9264 18.6239 81.0849 18.6105 81.2203 18.6849C81.5158 18.8487 81.908 18.871 82.3188 18.8963C82.7005 18.9186 82.9751 19.0556 83.1761 19.1902C83.3502 19.3056 83.1746 19.4515 83.0198 19.5683C82.9104 19.6502 82.7958 19.732 82.6581 19.8027C82.5219 19.8734 82.4616 19.9493 82.4654 20.0438C82.4765 20.3177 82.4118 20.5841 82.1416 20.8327C82.0494 20.9175 81.9325 20.9644 81.7242 20.9845C81.2628 21.0299 80.913 21.1787 80.5588 21.3164C80.4881 21.3439 80.4918 21.3834 80.523 21.4221C80.5975 21.5166 80.5528 21.6036 80.4605 21.6907C80.3087 21.8343 80.1614 21.9787 79.9746 22.1127C79.884 22.1814 79.7833 22.2356 79.6761 22.2734C79.4722 22.3426 79.2646 22.3925 79.0213 22.3069C78.9464 22.2787 78.8647 22.2735 78.7868 22.292C78.8754 22.3523 78.964 22.4074 79.0399 22.4654C79.2103 22.5971 79.1433 22.6887 78.8375 22.7422C78.7276 22.7633 78.6165 22.7769 78.5048 22.7832C78.2622 22.7921 78.0843 22.8323 78.0099 22.9543C77.9749 23.0109 77.8663 23.034 77.742 23.0429C77.4771 23.0615 77.4473 23.0928 77.5962 23.2022C77.6512 23.2423 77.6713 23.252 77.5842 23.3063C77.4123 23.4128 77.3015 23.5415 77.1132 23.6502C77.0164 23.706 77.0871 23.8139 77.265 23.8556C77.4406 23.8965 77.3915 23.93 77.3022 23.9858C77.0648 24.1316 76.8356 24.2775 76.715 24.4598C76.6615 24.5417 76.4903 24.6035 76.3526 24.6876C76.3162 24.5484 76.1286 24.4926 75.9024 24.4688C75.7908 24.4561 75.7744 24.4464 75.8213 24.3973C75.9002 24.3177 75.8622 24.2306 75.8711 24.1465C75.8763 24.0944 75.8339 24.0364 76.0229 24.0319C76.1294 24.0289 76.0869 23.9828 76.0468 23.9538C75.9434 23.87 75.8205 23.8137 75.6896 23.7901C75.5504 23.7655 75.6196 23.7335 75.6568 23.7037C75.7134 23.6591 75.7372 23.6903 75.7848 23.7142C75.9314 23.7863 75.9567 23.703 75.9731 23.668C76.0445 23.5095 76.0825 23.348 75.9708 23.1902C75.9202 23.1181 75.9158 23.0526 75.9589 22.9796C76.0066 22.8985 76.0371 22.8144 76.0073 22.7289C75.985 22.6634 76.014 22.6001 76.0765 22.5436C76.3385 22.3099 76.4144 22.0569 76.4449 21.7971C76.4903 21.4116 76.5521 21.0269 76.6131 20.6422C76.6242 20.5759 76.5878 20.5298 76.4784 20.4889C76.2618 20.4077 76.0624 20.3169 75.8376 20.241C75.5935 20.1592 75.4365 20.0542 75.3457 19.921C75.1472 19.6304 74.9236 19.3578 74.6775 19.1062C74.6164 19.0444 74.5993 19.0012 74.7422 18.961C74.8375 18.935 74.9215 18.9 74.7653 18.8509C74.635 18.8092 74.6923 18.7408 74.7184 18.6864C74.7869 18.5391 74.9349 18.4096 75.1262 18.2913C75.4417 18.0956 75.4008 17.8879 75.1939 17.681C75.0838 17.5709 74.987 17.5657 74.7906 17.6386C74.6626 17.687 74.2027 17.6245 74.0732 17.5396C74.0114 17.4987 73.9809 17.4489 73.8328 17.4868C73.7361 17.5114 73.7569 17.46 73.7457 17.4347C73.6706 17.271 73.4927 17.1549 73.1377 17.1028C72.7969 17.0529 72.5007 16.9569 72.203 16.8654C72.0743 16.826 71.9508 16.7932 71.7855 16.8289C71.6888 16.8505 71.5779 16.8349 71.476 16.8141C71.0491 16.731 70.6273 16.6241 70.2123 16.4941C70.0665 16.4472 69.9668 16.3891 69.995 16.2931C70.0189 16.212 69.9184 16.1465 69.8231 16.0855C69.3833 15.8042 68.9517 15.5214 68.6265 15.2044C68.5796 15.159 68.4851 15.1203 68.3645 15.1478C68.2402 15.1761 68.2901 15.2282 68.3288 15.2691C68.5826 15.543 68.8691 15.8079 69.2412 16.049C69.0551 16.0446 68.8438 15.9649 68.7552 15.863C68.7351 15.8392 68.7344 15.8094 68.7031 15.7916C68.308 15.5609 68.1599 15.2729 67.9002 15.0102C67.8109 14.9209 67.604 14.8963 67.4693 14.8293C67.3807 14.7847 67.2535 14.7519 67.1887 14.6976C66.83 14.3925 66.3403 14.1112 66.5041 13.7182C66.5606 13.5821 66.5234 13.4384 66.545 13.2993C66.5502 13.2665 66.5331 13.1713 66.7154 13.2442C66.7333 13.2521 66.7529 13.2554 66.7725 13.2537C66.792 13.252 66.8108 13.2454 66.827 13.2345C66.8791 13.1973 66.9089 13.1579 66.8523 13.1155C66.617 12.934 66.3412 12.8122 66.0486 12.7605C65.9191 12.7367 65.8023 12.7337 65.8901 12.6481C65.9005 12.6377 65.899 12.6131 65.8938 12.6124C65.6884 12.5871 65.6869 12.4807 65.5642 12.4263C65.4674 12.3839 65.4116 12.3601 65.4228 12.2849C65.4406 12.1674 65.3766 12.0505 65.0923 11.9977C64.8959 11.962 64.7575 11.8928 64.6689 11.7982C64.5997 11.7223 64.5126 11.6509 64.2923 11.6874C64.2663 11.6909 64.2399 11.6899 64.2142 11.6844C63.7104 11.5638 63.1575 11.5222 62.6194 11.4567C62.5177 11.4413 62.4182 11.4136 62.3232 11.3741C62.1275 11.3004 61.9831 11.3227 61.9236 11.4373C61.902 11.4797 61.8581 11.5073 61.7896 11.5266C61.7003 11.5504 61.5857 11.5936 61.5031 11.5519C61.4362 11.5184 61.5329 11.4686 61.5775 11.4284C61.6081 11.4009 61.7502 11.3822 61.6445 11.3421C61.5569 11.3126 61.4612 11.3188 61.3781 11.3592C61.2628 11.4321 61.1452 11.508 61.076 11.5921C61.0107 11.6638 60.93 11.7197 60.8401 11.7558C60.4069 11.9545 59.8823 12.0766 59.316 12.1622C59.5452 12.1026 59.7803 12.0461 60.0021 11.9806C60.177 11.9285 60.3266 11.86 60.3578 11.7543C60.3742 11.697 60.3682 11.6487 60.1926 11.6799C60.081 11.7 59.9671 11.6814 59.854 11.668C59.5735 11.6338 59.3762 11.5236 59.0838 11.4902C58.9126 11.4708 58.7995 11.3636 58.8285 11.2721C58.8598 11.1754 59.0101 11.1173 59.2341 11.1009C59.4574 11.0861 59.6732 10.9692 59.6642 10.8896C59.6568 10.8271 59.6159 10.7832 59.4715 10.8345C59.3078 10.8933 59.1292 10.8926 58.9409 10.8792C58.8047 10.8695 58.6775 10.8628 58.6507 10.778C58.6358 10.7303 58.5152 10.7303 58.4326 10.6961C58.6871 10.6291 58.9223 10.5607 59.214 10.6425C59.3043 10.6695 59.4005 10.6695 59.4909 10.6425C59.5526 10.6239 59.6092 10.6023 59.6025 10.5636C59.5958 10.5264 59.5318 10.5212 59.4708 10.5123C59.1433 10.4676 58.9082 10.3582 58.6365 10.2436C59.2296 10.1335 59.6933 9.92216 60.2923 9.84699C60.6347 9.80458 60.9844 9.85295 61.3096 9.92141C61.364 9.93257 61.4042 9.96383 61.4719 9.95713C61.934 9.91099 62.3798 9.98467 62.8263 10.0122C63.3264 10.0427 63.8109 10.135 64.302 10.1997C64.3749 10.2094 64.395 10.2317 64.4032 10.2645C64.4122 10.298 64.4255 10.3322 64.4546 10.3627C64.4888 10.3999 64.5297 10.452 64.6354 10.4371C64.7359 10.4237 64.6875 10.3746 64.6771 10.3382C64.654 10.2541 64.6034 10.1802 64.5335 10.1283C64.8282 10.1692 65.0045 10.0539 65.2575 10.0479L64.875 10.1804C64.8311 10.1953 64.7813 10.2154 64.8095 10.2414C64.8371 10.2675 64.9055 10.2622 64.9517 10.2511C65.1876 10.193 65.4265 10.138 65.6512 10.0725C65.8469 10.0144 66.027 9.98541 66.2421 10.0487C66.3381 10.0769 66.4482 10.0732 66.5695 10.0606C66.8858 10.0286 67.1805 10.0829 67.4655 10.1432C67.604 10.1729 67.7335 10.2027 67.8912 10.161C67.9899 10.1379 68.0936 10.1489 68.1852 10.1923C68.2767 10.2384 68.1294 10.2481 68.1018 10.2771C68.0386 10.3426 68.1562 10.3545 68.2298 10.3582C68.3876 10.3657 68.5476 10.362 68.7068 10.3605C68.9614 10.3568 69.1839 10.3783 69.297 10.5071C69.3193 10.5331 69.3588 10.5636 69.4309 10.5592C69.5098 10.5532 69.5202 10.5168 69.5188 10.4892C69.5135 10.4148 69.5426 10.356 69.7122 10.3307C69.7695 10.3218 69.7792 10.2935 69.7398 10.2682C69.7189 10.2548 69.713 10.2637 69.6416 10.2942C69.5396 10.3367 69.4801 10.2831 69.3908 10.2667C69.6579 10.1841 69.8708 10.1916 70.0895 10.2712C70.4393 10.3992 70.8337 10.3858 71.2296 10.3359C71.4313 10.3106 71.6032 10.2764 71.8362 10.324C72.0721 10.3724 72.113 10.2355 72.1874 10.1633C72.2618 10.0911 72.1755 10.0591 72.0118 10.0531C71.8719 10.0487 71.8168 9.99509 71.8451 9.93332C71.8771 9.86337 71.9567 9.80606 72.1219 9.79788C72.3117 9.7882 72.5528 9.90504 72.5052 9.99434C72.4762 10.0494 72.4866 10.0695 72.5945 10.0881C72.6815 10.103 72.7284 10.1357 72.7448 10.1841C72.7835 10.295 72.881 10.2511 72.9815 10.202C73.0455 10.1707 73.0737 10.1067 73.1958 10.1238C73.3096 10.1402 73.3245 10.1997 73.3543 10.2481C73.3975 10.3188 73.3841 10.4289 73.5656 10.4304C73.7294 10.4312 73.7971 10.3262 73.8864 10.2593C73.9042 10.2459 73.9162 10.2243 73.9065 10.2102C73.844 10.1231 73.8916 10.0903 74.094 10.103C74.3761 10.1201 74.4862 10.1625 74.4438 10.2608C74.4237 10.3069 74.4393 10.3456 74.4981 10.3798C74.6514 10.4669 74.5562 10.5123 74.3828 10.5495C74.216 10.5885 74.0457 10.6097 73.8745 10.6128C73.8261 10.6128 73.7606 10.6016 73.7405 10.6351C73.7234 10.6611 73.7628 10.6827 73.7948 10.7028C73.8894 10.7638 74.0233 10.7951 74.1699 10.8159C74.3545 10.8427 74.5003 10.8956 74.6202 10.9648C74.6522 10.9841 74.7005 11.0035 74.6529 11.031C74.6157 11.0518 74.5681 11.0422 74.5338 11.031C74.3232 10.9618 74.164 10.9715 74.0107 11.0794C73.9095 11.1508 73.7681 11.0935 73.6594 11.063C73.5009 11.0176 73.681 10.9982 73.7041 10.9692C73.7703 10.8829 73.7762 10.7869 73.6475 10.7296C73.486 10.6582 73.2709 10.6864 73.067 10.7318C73.1162 10.7832 73.2129 10.7809 73.2873 10.7966C73.355 10.8115 73.4711 10.8085 73.4704 10.8539C73.4689 10.8911 73.3729 10.9097 73.3044 10.9283C73.2732 10.9372 73.2434 10.9514 73.2114 10.9529C72.526 10.9767 72.4255 11.2952 72.0743 11.4835C71.883 11.5847 72.0475 11.7209 72.3362 11.7484C72.4308 11.7581 72.4732 11.7774 72.4776 11.8228C72.4873 11.9076 72.5521 11.962 72.7604 11.9716C72.8735 11.9761 72.9844 12.0193 73.0871 12.0513C73.3945 12.148 73.713 12.2276 74.0881 12.2381C74.2257 12.2418 74.2763 12.2649 74.2406 12.3326C74.1364 12.5298 74.3634 12.6533 74.6678 12.7582C74.8434 12.8185 74.9543 12.8029 75.0317 12.7069C75.0771 12.6503 75.0778 12.5916 75.0808 12.532C75.0805 12.4634 75.0962 12.3956 75.1266 12.3341C75.1571 12.2726 75.2016 12.2191 75.2564 12.1778C75.3956 12.0669 75.3822 11.9582 75.2259 11.857C75.1262 11.793 75.1046 11.735 75.1694 11.6576C75.2296 11.5862 75.2512 11.5117 75.2095 11.4262C75.1418 11.287 75.3569 11.1821 75.6516 11.1791C75.9098 11.1761 76.1398 11.2066 76.334 11.2922C76.4181 11.3294 76.5074 11.3651 76.6213 11.3815C76.7277 11.3979 76.779 11.4425 76.721 11.4797C76.5335 11.5988 76.692 11.6807 76.8639 11.7328C77.038 11.7856 77.2449 11.7476 77.4138 11.6926C77.486 11.6695 77.5478 11.6375 77.6096 11.607C77.7175 11.5549 77.8112 11.5623 77.8283 11.6338C77.87 11.802 78.1461 11.9129 78.2622 12.0632C78.3478 12.1726 78.6343 12.1644 78.7995 12.2314C78.8523 12.2537 78.9178 12.2678 79.0004 12.2924H78.9975ZM72.7463 13.2621C73.1697 13.2628 73.5433 13.2405 73.8551 13.3752C73.3937 13.4942 73.3074 13.6223 73.5054 13.8663C73.5723 13.8336 73.5723 13.7897 73.5909 13.7495C73.6356 13.6505 73.6802 13.5508 73.8053 13.466C73.9109 13.3945 74.1387 13.399 74.1521 13.4749C74.1699 13.5836 74.3604 13.6185 74.449 13.7086C74.5041 13.6446 74.5182 13.5791 74.5934 13.5501C74.8315 13.457 74.6209 13.4429 74.5041 13.4332C74.1655 13.4035 73.9184 13.3305 73.7368 13.1802C73.5783 13.0507 73.3707 13.0507 73.1236 13.1385C73.0194 13.1757 72.9085 13.21 72.7463 13.2621ZM74.3686 13.9229C74.7563 13.8306 75.1225 13.7235 75.5057 13.6312C75.1151 13.6755 74.7324 13.7737 74.3686 13.9229ZM79.9002 10.4796C79.9828 10.3992 80.1472 10.3969 80.2648 10.3456C80.1041 10.2809 80.0951 10.2169 80.2812 10.1536C80.3735 10.1216 80.305 10.0859 80.2484 10.0576C80.1309 9.99955 79.9768 9.98318 79.7744 9.97351C79.947 9.92513 80.1331 9.89165 80.0765 9.78523C80.0497 9.73313 79.9857 9.68178 79.8786 9.67732C79.7454 9.67211 79.796 9.76364 79.6858 9.78671C79.6717 9.78076 79.6382 9.77258 79.6397 9.76588C79.6925 9.56123 79.3591 9.44141 79.1917 9.28439C78.9588 9.06485 78.6045 9.01871 78.1357 9.06113C77.8856 9.0842 77.6237 9.07825 77.3699 9.09462C77.1615 9.10802 76.9688 9.12439 76.8482 9.01127C76.8259 8.99118 76.7478 8.98448 76.6481 8.95992C76.8259 8.94058 76.9621 8.92867 77.0938 8.91155C77.1883 8.8989 77.3476 8.90411 77.3312 8.84085C77.3171 8.78653 77.1668 8.78876 77.0618 8.78504C76.8855 8.7776 76.7091 8.77239 76.5327 8.7642C76.4836 8.76197 76.4241 8.76718 76.3846 8.73295C76.427 8.6816 76.5394 8.67118 76.6332 8.65853C76.8691 8.62876 77.1057 8.59899 77.3468 8.58411C77.6028 8.56774 77.7323 8.48737 77.8335 8.39137C77.8968 8.33183 77.8469 8.30578 77.7018 8.31546C77.5656 8.32439 77.4287 8.35044 77.2732 8.3229C77.5143 8.19267 77.8544 8.19937 78.1535 8.1629C78.2778 8.14802 78.4073 8.12569 78.4103 8.0736C78.4148 7.96718 78.5695 7.96569 78.708 7.94783C78.9409 7.91806 79.1805 7.92104 79.4194 7.91881C79.5251 7.91806 79.6382 7.93667 79.7178 7.8682C79.7759 7.8176 79.8451 7.87788 79.9024 7.89499C80.0021 7.92476 80.0795 7.95676 80.1227 7.86448C80.1695 7.76625 80.3608 7.7923 80.4962 7.79899C80.7433 7.81239 80.9896 7.82355 81.2375 7.81685C81.3238 7.81462 81.4362 7.8176 81.4466 7.76253C81.4585 7.70076 81.3387 7.67025 81.2575 7.63304C81.1742 7.59434 81.1199 7.61369 81.0715 7.65388C81.0455 7.67546 80.9978 7.70076 80.9472 7.6762C80.9033 7.65537 80.9033 7.6189 80.9524 7.59509C80.9882 7.57872 81.0581 7.5549 81.0842 7.5616C81.3699 7.63006 81.6907 7.51471 81.9787 7.60848C82.1015 7.64867 82.2927 7.68811 82.3835 7.56606C82.3947 7.54969 82.4929 7.54151 82.5517 7.54076C82.9282 7.53927 83.3048 7.54076 83.6821 7.54076L83.6843 7.57276C83.5809 7.59137 83.4752 7.60848 83.3733 7.62932C83.3249 7.63899 83.2639 7.65388 83.2728 7.68141C83.2855 7.72457 83.3703 7.71341 83.4231 7.71118C83.7751 7.69257 84.1256 7.67323 84.4762 7.6509C84.7054 7.63602 84.9338 7.63378 85.1876 7.64123C85.0462 7.73425 85.1749 7.75434 85.3178 7.75583C85.5024 7.75658 85.6869 7.74616 85.9191 7.73946C85.6668 7.82727 85.4123 7.83397 85.1653 7.84067C84.6042 7.8563 84.1033 7.95974 83.6092 8.07434C83.5586 8.08625 83.4745 8.09965 83.5013 8.13388C83.5236 8.1629 83.6047 8.16811 83.6657 8.15844C83.8756 8.12644 84.0884 8.09667 84.2909 8.05574C84.7016 7.97313 85.1295 7.95899 85.5656 7.96644C85.6074 7.9651 85.6491 7.96885 85.6899 7.9776C85.7383 8.1443 85.9377 8.03713 86.0747 8.02523C86.1811 8.0163 86.2823 8.01258 86.3895 8.02151C86.5487 8.03416 86.7065 8.03044 86.8583 7.99918C87.1165 7.94634 87.3733 7.96569 87.6568 7.99918C87.6092 8.01704 87.5846 8.03118 87.5541 8.0349C87.1627 8.08178 86.8561 8.24178 86.4162 8.2269C86.3188 8.22392 86.1848 8.25667 86.2071 8.30281C86.2481 8.38988 86.4148 8.31918 86.5316 8.33927C86.4021 8.4256 86.3217 8.52309 86.0925 8.57295C85.9571 8.60271 86.1327 8.79397 86.3195 8.82076C86.379 8.82895 86.4661 8.80216 86.4989 8.86244C86.3485 8.86244 86.2019 8.85872 86.0583 8.86392C85.9645 8.86765 85.8298 8.87881 85.8246 8.92941C85.8179 8.99118 85.9571 8.98076 86.0479 8.98746C86.0895 8.99044 86.1312 8.99118 86.2295 8.9949C86.1327 9.01499 86.0881 9.02616 86.0397 9.03434C85.9898 9.04178 85.9258 9.04551 85.9199 9.07527C85.9109 9.11695 85.995 9.12364 86.0471 9.12662C86.2302 9.13704 86.2942 9.20848 86.4162 9.27174C86.2637 9.28513 86.0895 9.27546 86.0226 9.31118C85.8864 9.38411 86.1498 9.39825 86.1714 9.46225C85.9712 9.46225 85.8469 9.38634 85.684 9.3536C85.5359 9.32383 85.355 9.23155 85.262 9.39304C85.23 9.4496 85.0901 9.40941 85.0001 9.4109C84.9294 9.41164 84.8438 9.40197 84.8177 9.44067C84.7954 9.4749 84.8735 9.48904 84.9227 9.50616C84.9651 9.52104 85.035 9.53444 85.0142 9.56197C84.8847 9.72941 85.1482 9.66764 85.291 9.67062C85.4897 9.67434 85.6468 9.71825 85.7785 9.78448C85.8417 9.81648 85.8797 9.86411 85.7889 9.89537C85.7033 9.92439 85.6326 9.88792 85.6066 9.85071C85.5567 9.78002 85.4562 9.76737 85.3171 9.77332C85.1883 9.77927 85.1124 9.80755 85.1236 9.86857C85.1325 9.92439 84.8654 9.92588 85.0135 9.99509C85.0886 10.0301 85.2181 10.0055 85.323 10.0055C85.4741 10.0055 85.6229 10.0129 85.7934 10.0449C85.2895 10.1171 84.8386 10.2474 84.3102 10.2102C83.9634 10.1863 83.7416 10.3084 83.4603 10.359C83.4261 10.3657 83.4075 10.4014 83.3978 10.426C83.3413 10.5584 83.1389 10.6217 82.8918 10.6343C82.5757 10.6418 82.2712 10.7544 82.0263 10.9543C81.9013 11.0496 81.8053 11.1605 81.8254 11.2892C81.8425 11.3979 81.6081 11.4306 81.4473 11.4782C81.4238 11.4818 81.3998 11.4807 81.3766 11.4753C81.3387 11.351 81.1057 11.3793 80.948 11.3488C80.6354 11.2892 80.2358 11.0109 80.2365 10.8487C80.2365 10.8077 80.2395 10.7854 80.1279 10.7921C80.014 10.7988 79.9307 10.7341 80.0006 10.6909C80.0616 10.6537 80.1063 10.6165 80.1331 10.5711C80.1584 10.5302 80.2975 10.4952 80.2001 10.4505C80.1137 10.4103 80.0348 10.4788 79.9002 10.4796ZM116.919 19.7268C116.996 19.9076 117.127 20.0334 117.303 20.151C117.368 20.1956 117.362 20.2649 117.38 20.3229C117.432 20.4993 117.549 20.6503 117.869 20.7672C118.04 20.8297 118.139 20.9398 118.257 21.0321C118.356 21.1126 118.474 21.1655 118.6 21.1854C118.83 21.2211 118.832 21.2963 118.814 21.3849C118.75 21.7272 118.662 22.0673 118.344 22.3821C118.307 22.4158 118.276 22.4562 118.254 22.5011C118.206 22.6105 118.173 22.7222 117.858 22.7214C117.827 22.7228 117.797 22.7323 117.77 22.7489C117.621 22.8531 117.47 22.8978 117.278 22.7676C117.226 22.7326 117.158 22.7542 117.09 22.769C116.764 22.8405 116.555 22.8062 116.403 22.6582C116.304 22.5614 116.117 22.4922 116.094 22.3694C116.081 22.3024 115.941 22.3873 115.85 22.3672C115.888 22.3106 115.928 22.2556 115.958 22.199C115.971 22.1752 115.964 22.1462 115.908 22.1335C115.847 22.1186 115.814 22.1409 115.778 22.1618C115.681 22.2191 115.675 22.3329 115.512 22.3329C115.425 22.3322 115.355 22.2191 115.25 22.17C114.963 22.0398 114.647 21.9879 114.334 22.0196C113.963 22.0509 113.578 22.0628 113.277 22.1982C113.182 22.2301 113.082 22.2467 112.981 22.2474C112.773 22.2556 112.567 22.2932 112.369 22.359C112.219 22.4132 112.056 22.42 111.902 22.3783C111.732 22.3337 111.729 22.2689 111.721 22.1863C111.698 21.9445 111.591 21.7093 111.341 21.4935C111.296 21.4541 111.219 21.4198 111.232 21.3685C111.336 21.3462 111.352 21.4622 111.457 21.4042C111.536 21.361 111.482 21.3097 111.422 21.2643C111.204 21.0939 111.244 21.0187 111.617 20.9197C111.887 20.8476 112.162 20.7821 112.444 20.7203C112.748 20.6541 113.054 20.5648 112.964 20.3363C113.147 20.4182 113.264 20.4702 113.276 20.3036C113.282 20.2165 113.571 20.183 113.661 20.0915C113.677 20.0751 113.761 20.0929 113.795 20.1153C113.901 20.1852 114.059 20.1956 114.221 20.1971C114.349 20.1994 114.512 20.2336 114.437 20.1004C114.401 20.0349 114.541 19.9411 114.674 19.8913C114.782 19.8503 114.804 19.7551 114.96 19.761C115.174 19.7655 115.388 19.7884 115.598 19.8295C115.681 19.8474 115.679 19.8667 115.651 19.8972C115.626 19.9248 115.597 19.9508 115.572 19.9776C115.405 20.1532 115.431 20.2038 115.752 20.3214C115.843 20.3549 115.936 20.3876 116.03 20.4196C116.37 20.535 116.374 20.5342 116.532 20.3452C116.613 20.2535 116.671 20.1442 116.702 20.026C116.722 19.9329 116.783 19.8451 116.919 19.7268ZM75.1909 8.89816C74.8955 9.02169 73.9437 9.03211 73.1645 8.92792C73.2315 8.87285 73.2315 8.8736 73.3469 8.90337C73.3704 8.90736 73.3946 8.90583 73.4175 8.8989C73.4533 8.88551 73.4607 8.86913 73.4481 8.84383C73.4309 8.80885 73.2397 8.79992 73.3722 8.74932C73.4904 8.70232 73.6202 8.69246 73.7442 8.72104C73.7874 8.73146 73.8209 8.75676 73.8983 8.7456C73.7584 8.6749 73.5753 8.6429 73.4228 8.59006C73.3806 8.57609 73.3359 8.57113 73.2917 8.57549C73.2475 8.57985 73.2047 8.59343 73.166 8.61537C73.006 8.69574 72.8006 8.68681 72.5952 8.68458C72.4241 8.68234 72.4776 8.59081 72.3526 8.57518C72.4516 8.52011 72.5982 8.5402 72.6771 8.4896C72.5893 8.43899 72.4613 8.43899 72.3437 8.43006C72.1874 8.41816 71.979 8.41964 71.9835 8.32216C71.9872 8.2269 72.1963 8.2269 72.3526 8.21574C72.3601 8.21574 72.3675 8.21202 72.3839 8.20755C72.2373 8.12867 72.3571 8.10188 72.4918 8.11081C72.7813 8.13016 73.003 8.24327 73.3007 8.25816C73.2948 8.35044 73.4369 8.40699 73.5269 8.47769C73.6624 8.58188 74.2488 8.65034 74.4549 8.58188C74.4996 8.56699 74.5465 8.54913 74.5346 8.52085C74.5197 8.48364 74.4527 8.48141 74.3887 8.48439C74.1707 8.49481 73.9943 8.44495 73.8231 8.39211C73.7539 8.37127 73.6423 8.34969 73.6951 8.2976C73.7375 8.25592 73.8492 8.24774 73.9303 8.26039C74.3076 8.32141 74.6432 8.24848 74.9826 8.19044C75.0652 8.17555 75.1426 8.15471 75.2185 8.13313C75.2855 8.11378 75.3748 8.09146 75.3256 8.04606C75.2825 8.00588 75.1835 8.01481 75.1106 8.02597C75.0183 8.03862 74.9312 8.06169 74.8449 8.08253C74.486 8.17442 74.1105 8.1808 73.7487 8.10113C73.6691 8.08327 73.5857 8.06392 73.4994 8.09444C73.4396 8.11768 73.3752 8.12636 73.3114 8.11976C73.2476 8.11316 73.1863 8.09147 73.1325 8.05648C73.0365 7.98802 72.9115 7.95602 72.753 7.93146C73.0082 7.93071 73.262 7.89723 73.4719 7.85406C73.7308 7.7985 73.9945 7.7681 74.2592 7.76327C74.2838 7.76253 74.3232 7.74318 74.3269 7.73053C74.3738 7.58616 74.6224 7.56681 74.8434 7.56309C75.1314 7.55639 75.4164 7.53332 75.7119 7.55044C76.0602 7.57202 76.4181 7.5549 76.7723 7.56011C76.9286 7.56234 77.0968 7.55118 77.1869 7.65016C77.23 7.69853 77.3766 7.67546 77.4808 7.66727C77.675 7.6509 77.8685 7.63974 78.0419 7.70151C78.097 7.7216 78.1863 7.73425 78.1848 7.77072C78.1826 7.80792 78.091 7.81834 78.03 7.83025C77.7532 7.88532 77.4719 7.93592 77.1935 7.99025C77.0968 8.00885 76.9837 8.02002 76.9495 8.07583C76.9375 8.09444 76.9815 8.10634 77.0149 8.10783C77.1415 8.1123 77.3171 8.10262 77.3468 8.05723C77.4109 7.96123 77.5039 8.0349 77.5954 8.02374C77.5262 8.08551 77.4027 8.09369 77.3082 8.11974C77.0856 8.18002 76.8393 8.22392 76.6362 8.29685C76.4293 8.37053 76.2455 8.41071 75.9932 8.35416C75.9113 8.33555 75.796 8.32885 75.7521 8.40774C75.7364 8.43378 75.5653 8.43751 75.4693 8.45685C75.4053 8.47025 75.3271 8.49034 75.3428 8.52904C75.3629 8.57592 75.4536 8.55509 75.5191 8.55732C75.5839 8.5603 75.6791 8.53351 75.7052 8.57518C75.7312 8.6176 75.6375 8.64067 75.5697 8.65704C75.3055 8.72402 75.0503 8.80662 74.7258 8.78206C74.6693 8.7776 74.5844 8.7709 74.5695 8.8096C74.5584 8.84309 74.638 8.85499 74.6901 8.86765C74.8389 8.90634 75.0019 8.90932 75.1909 8.89816Z" fill="#9b99ff"/>
<path d="M73.8067 9.75321C73.7129 9.71823 73.7769 9.67135 73.7069 9.63414C73.6608 9.70856 73.7032 9.77405 73.7568 9.8373C73.7769 9.86112 73.8126 9.88568 73.8744 9.87749C73.9369 9.86856 73.9823 9.844 73.9637 9.80977C73.9475 9.78142 73.9378 9.74984 73.9352 9.71729C73.9326 9.68475 73.9373 9.65203 73.9488 9.62149C73.9749 9.54335 74.0642 9.49944 74.2137 9.4801C74.3789 9.45926 74.5189 9.45777 74.4995 9.57386C74.4913 9.62447 74.5181 9.70633 74.6208 9.69591C74.8143 9.6773 75.013 9.84698 75.1975 9.68549C75.2727 9.62 75.6709 9.62298 75.7743 9.69889C75.9708 9.84251 76.2 9.88196 76.5252 9.79637C76.5423 9.85665 76.3466 9.86856 76.4217 9.91247C76.4656 9.93926 76.581 9.94223 76.6666 9.94744C76.8206 9.95637 76.9523 9.98912 77.0833 10.0248C77.1994 10.0568 77.2835 10.0821 77.151 10.1558C77.0029 10.2377 77.1875 10.298 77.3021 10.3002C77.6362 10.3047 77.8394 10.4394 78.1445 10.4714C78.2442 10.481 78.4645 10.5391 78.1721 10.5964C78.1574 10.599 78.1434 10.604 78.1304 10.6113C77.8975 10.7422 77.8989 10.7415 77.6147 10.6247C77.5417 10.5949 77.4621 10.5584 77.3743 10.5502C77.2817 10.5431 77.1895 10.5686 77.1138 10.6224C77.0536 10.6641 77.1376 10.6931 77.1868 10.7207C77.3304 10.801 77.4896 10.8762 77.6214 10.9603C77.7211 11.0258 77.768 11.0965 77.5551 11.1486C77.3311 11.2029 77.6407 11.2289 77.5894 11.2833C77.3116 11.2288 77.0324 11.1816 76.7522 11.1419C76.6166 11.1164 76.4848 11.0739 76.36 11.0154C76.0999 10.8918 75.8087 10.8495 75.5242 10.894C75.4335 10.9067 75.2682 10.9409 75.2415 10.8591C75.2184 10.7861 75.3769 10.7824 75.487 10.775C75.5741 10.7683 75.6642 10.7727 75.752 10.7683C75.8762 10.7631 76.0787 10.8025 75.9663 10.6678C75.9261 10.6187 76.1762 10.554 76.3071 10.5755C76.3644 10.5845 76.4173 10.6001 76.4738 10.6105C76.5423 10.6224 76.613 10.6299 76.6636 10.5934C76.6867 10.577 76.7239 10.5614 76.6896 10.5376C76.6457 10.5078 76.5788 10.5078 76.5207 10.5138C76.3481 10.5294 76.2908 10.4862 76.2521 10.4148C76.2253 10.3672 76.2149 10.2994 76.0459 10.3076C76.0236 10.3084 75.9834 10.3099 75.9961 10.2898C76.0898 10.1491 75.8323 10.1707 75.6932 10.1394C74.9966 9.98317 74.2435 10.0085 73.5053 9.98614C73.2299 9.9787 72.9858 9.84623 72.9843 9.70335C72.9829 9.61033 73.288 9.47637 73.5127 9.47117C73.7561 9.46521 73.8908 9.58726 73.8067 9.75321ZM111.618 18.9707C111.006 18.9707 110.613 18.8174 110.502 18.5465C110.482 18.4967 110.476 18.4527 110.579 18.423C110.963 18.3151 111.288 18.1714 111.619 18.0315C111.665 18.0114 111.707 17.9899 111.75 17.969C111.981 17.8589 112.105 17.8656 112.302 17.9914C112.356 18.0248 112.332 18.0412 112.283 18.0643C112.208 18.0997 112.134 18.1362 112.06 18.1737C112.006 18.2005 112.012 18.2168 112.082 18.2421C112.312 18.3255 112.306 18.385 112.17 18.5078C112.035 18.6306 111.792 18.7318 111.851 18.897C111.877 18.9714 111.687 18.9484 111.618 18.9707ZM68.3801 9.49944C68.3801 9.556 68.3749 9.58503 68.3816 9.61405C68.3935 9.66763 68.4515 9.68623 68.5311 9.64084C68.5697 9.61499 68.6144 9.59962 68.6607 9.59623C68.707 9.59284 68.7534 9.60154 68.7953 9.62149C68.8214 9.63191 68.8623 9.63935 68.8921 9.62447C69.1376 9.50242 69.2508 9.64158 69.41 9.68549C69.4651 9.70112 69.4755 9.75693 69.5648 9.73758C69.6288 9.72493 69.6578 9.68623 69.6519 9.65126C69.6296 9.51656 69.9793 9.54112 70.0448 9.44289C70.0478 9.43768 70.1125 9.45033 70.1043 9.4801C70.0165 9.80158 70.1706 9.91172 70.789 9.96158C70.6885 10.0189 70.4117 10.0464 70.6602 10.1521C70.5412 10.167 70.4764 10.1313 70.3998 10.1164C70.0947 10.0591 69.7962 10.0308 69.4785 10.1052C69.3311 10.1402 69.1577 10.1499 68.9962 10.1707C68.7864 10.1982 68.5929 10.1856 68.421 10.1179C68.2967 10.0687 68.1456 10.0449 67.9566 10.0129C68.2015 9.97498 68.418 9.98837 68.6279 9.97721C68.709 9.97275 68.8348 9.97721 68.837 9.92512C68.8392 9.88196 68.7246 9.88196 68.6495 9.87154C68.4744 9.85254 68.2978 9.85204 68.1226 9.87005C67.9216 9.88493 67.8502 9.82837 67.7817 9.74875C67.7058 9.66019 67.8338 9.64828 67.9365 9.62L68.3801 9.4987V9.49944ZM114.721 18.6284C114.95 18.6805 115.238 18.6254 115.292 18.8062C115.326 18.9164 115.532 18.9342 115.698 18.8516C115.829 18.7876 115.945 18.7824 116.118 18.8122C116.628 18.9 117.108 19.0146 117.554 19.162C117.625 19.185 117.736 19.2155 117.74 19.246C117.764 19.4187 117.999 19.5251 118.302 19.6524C117.97 19.6323 117.752 19.6107 117.614 19.4805C117.466 19.3413 117.172 19.3368 116.975 19.4641C116.862 19.5385 116.746 19.502 116.631 19.4879C116.515 19.4722 116.4 19.4504 116.287 19.4224C116.184 19.3971 116.072 19.3994 115.958 19.3927C116.156 19.2267 116.134 19.1679 115.787 19.0645C115.564 18.9975 115.361 18.8985 115.048 18.9357C114.972 18.9447 114.931 18.8874 114.992 18.862C115.217 18.7675 115.009 18.7556 114.889 18.7236C114.831 18.7087 114.753 18.7021 114.721 18.6284ZM99.2184 19.8712C99.3702 20.023 99.4149 20.1465 99.3442 20.2648C99.1827 20.5335 99.071 20.8081 98.9334 21.0782C98.8813 21.1794 98.8135 21.2717 98.5598 21.3007C98.4199 21.3156 98.3365 21.3 98.2844 21.2397C98.1579 21.0931 98.0448 20.9465 98.2465 20.7917C98.3484 20.7143 98.306 20.6258 98.2934 20.5424C98.2748 20.4144 98.373 20.3184 98.6052 20.2574C98.9021 20.18 99.1395 20.0788 99.2184 19.8704V19.8712ZM114.235 14.7489C114.47 14.8234 114.599 14.7832 114.722 14.7192C114.826 14.6648 114.968 14.6328 115.117 14.6217C115.341 14.6038 115.556 14.5882 115.647 14.4654C115.675 14.4297 115.738 14.446 115.803 14.455C115.97 14.4758 116.041 14.4386 115.983 14.3605C115.94 14.3009 115.946 14.2756 116.09 14.3039C116.223 14.33 116.242 14.2816 116.261 14.2414C116.287 14.1878 116.302 14.1327 116.319 14.0777C116.334 14.0308 116.381 13.9958 116.486 13.9958C116.591 13.9958 116.673 14.0181 116.713 14.068C116.762 14.1298 116.783 14.1975 116.727 14.254C116.589 14.394 116.522 14.5435 116.451 14.6909C116.419 14.7579 116.356 14.7713 116.234 14.7683C116.009 14.7631 115.788 14.7668 115.628 14.8606C115.559 14.9015 115.512 14.8799 115.471 14.8457C115.401 14.7891 115.311 14.7482 115.155 14.7534C115.157 14.81 115.358 14.7914 115.312 14.8539C115.272 14.9082 115.171 14.9223 115.055 14.9223C114.897 14.9231 114.869 14.9893 114.812 15.0414C114.77 15.0786 114.737 15.118 114.684 15.1515C114.6 15.2059 114.47 15.1902 114.482 15.1359C114.509 15.0012 114.345 14.8978 114.235 14.7489ZM94.5479 8.77312C94.3737 8.78354 94.2785 8.79098 94.1825 8.79544C94.1311 8.79693 94.0448 8.79247 94.0694 8.76344C94.1951 8.61237 93.8826 8.64586 93.7747 8.61684C93.6482 8.58261 93.5856 8.66968 93.5127 8.71358C93.4824 8.73309 93.4533 8.75447 93.4256 8.77758C93.3438 8.84233 93.3282 8.93982 93.183 8.9681C93.0335 8.99786 92.9732 8.87507 92.7879 8.88251C92.8586 8.82149 93.0491 8.82596 93.0349 8.75451C93.0238 8.69721 92.8802 8.74112 92.8169 8.71061C92.8824 8.66298 92.9888 8.65851 93.0625 8.63023C93.1034 8.61461 93.1607 8.59972 93.1354 8.5707C93.1138 8.5454 93.0535 8.53796 92.9992 8.54093C92.9087 8.54372 92.8192 8.56131 92.7343 8.59303C92.6301 8.63544 92.5267 8.65777 92.4069 8.60419C92.3801 8.59228 92.3406 8.56921 92.2997 8.59675C92.1821 8.67489 92.1345 8.59823 92.0362 8.57293C92.1858 8.53944 92.351 8.51489 92.3257 8.4293C92.3101 8.37498 92.191 8.42186 92.0682 8.39805C92.2699 8.34596 92.4418 8.32586 92.6249 8.3281C92.6651 8.38242 92.4269 8.39209 92.5438 8.44121C92.6375 8.48065 92.7574 8.45833 92.8489 8.41144C92.9051 8.38012 92.9677 8.36203 93.0319 8.35855C93.0961 8.35506 93.1603 8.36628 93.2195 8.39135C93.2939 8.42112 93.3363 8.49703 93.4926 8.43972C93.6392 8.3854 93.6035 8.3281 93.5008 8.25144C93.7218 8.27823 93.9362 8.24326 94.0508 8.34819C94.1036 8.39507 94.1482 8.35117 94.1564 8.33926C94.2599 8.19265 94.4906 8.24251 94.6975 8.2574C94.8098 8.26484 94.9207 8.27749 95.0361 8.28716C94.8143 8.42484 94.5672 8.46949 94.2428 8.44121C94.0701 8.42633 93.9004 8.39358 93.7211 8.40623C93.6742 8.40996 93.6147 8.42707 93.5961 8.44642C93.5626 8.47991 93.6549 8.47768 93.6831 8.49554C93.8915 8.62205 94.2495 8.64586 94.5479 8.77312ZM88.9531 12.8118C88.9985 12.7426 89.1198 12.7486 89.192 12.7218C89.2448 12.7017 89.3386 12.695 89.3259 12.6526C89.3148 12.6101 89.2247 12.6139 89.1585 12.6064C89.1257 12.602 89.093 12.599 89.0536 12.5945C89.0761 12.5559 89.1062 12.5224 89.1422 12.4959C89.1781 12.4694 89.2191 12.4505 89.2627 12.4405C89.4271 12.3884 89.3914 12.2671 89.2188 12.2194C88.8876 12.1287 88.8005 11.9649 89.0096 11.8124C89.1056 11.7417 89.2255 11.6799 89.3936 11.6338C89.4204 11.6762 89.3505 11.6948 89.3237 11.7216C89.2798 11.7655 89.1637 11.8027 89.221 11.8563C89.288 11.9203 89.4145 11.8526 89.5112 11.8741C89.5402 11.9076 89.4807 11.9277 89.4495 11.9486C89.346 12.0155 89.3631 12.0639 89.5023 12.1197C89.7017 12.1986 89.8506 12.2983 89.9131 12.4234C89.9388 12.4606 89.9736 12.4906 90.0143 12.5104C90.0709 12.5432 90.2584 12.5164 90.2011 12.602C90.1505 12.6779 90.0634 12.7486 89.8803 12.7508C89.573 12.7553 89.2694 12.7731 88.9531 12.8118ZM102.924 8.94279C102.894 9.00084 102.793 9.00233 102.718 9.01721C102.392 9.08344 102.056 9.13703 101.706 9.1653C101.104 9.21293 100.771 9.42354 100.464 9.64158C100.318 9.74577 100.542 9.81423 100.708 9.89758C100.457 9.89386 100.226 9.93777 100.114 9.79489C100.076 9.748 99.9507 9.75321 99.8569 9.74279C100.003 9.57163 100.088 9.53591 100.42 9.51209C100.26 9.48903 100.233 9.46 100.33 9.4027C100.429 9.34317 100.646 9.30893 100.555 9.19656C100.542 9.17944 100.638 9.17126 100.689 9.17051C100.914 9.16456 101.12 9.12735 101.328 9.09237C101.505 9.06261 101.685 9.04772 101.874 9.0507C102.072 9.05516 102.255 9.02614 102.44 8.99414C102.591 8.96735 102.744 8.9294 102.924 8.94205V8.94279ZM108.015 18.0293C108.219 18.0278 108.388 18.0531 108.486 18.1171C108.766 18.3002 109.172 18.4327 109.388 18.644C109.464 18.7184 109.616 18.7854 109.824 18.7928C109.84 18.7936 109.86 18.7943 109.874 18.7973C109.929 18.81 109.958 18.833 109.937 18.8598C109.868 18.9454 109.813 19.0354 109.712 19.1128C109.665 19.1486 109.572 19.098 109.521 19.0741C109.289 18.9633 109.112 18.8353 108.928 18.7058C108.666 18.5212 108.504 18.3076 108.187 18.1402C108.129 18.1097 108.083 18.0732 108.015 18.0293ZM66.4846 9.66837C66.6454 9.6334 66.7376 9.58651 66.7384 9.50242C66.7406 9.37144 66.9125 9.30075 67.1782 9.32977C67.3791 9.3521 67.5771 9.36028 67.7795 9.36996C68.037 9.38261 68.1456 9.46819 68.0206 9.54633C67.9708 9.57684 67.9321 9.59842 67.9283 9.53144C67.9269 9.50986 67.8383 9.53591 67.7944 9.54558C67.5756 9.59172 67.4134 9.6773 67.2176 9.73907C67.0048 9.80754 66.8508 9.83358 66.6729 9.72865C66.6327 9.70484 66.5628 9.69293 66.4846 9.66837ZM85.5708 10.8062C85.823 10.7802 86.0746 10.769 86.1981 10.6433C86.2316 10.609 86.3038 10.6209 86.3618 10.618C86.5017 10.6105 86.6498 10.615 86.7801 10.5941C87.074 10.5473 87.1745 10.6522 87.3099 10.7333C87.3702 10.7698 87.2988 10.7884 87.2519 10.8025C86.9401 10.8918 86.6141 10.9662 86.2442 10.9737C86.088 10.9767 85.9242 10.9647 85.8402 10.8836C85.7896 10.8353 85.6697 10.8442 85.5708 10.8062ZM74.8917 9.14075C74.9096 9.26726 74.7443 9.29107 74.5181 9.29107C74.2442 9.29182 73.9696 9.29554 73.698 9.31042C73.3408 9.33051 73.0297 9.23972 72.6859 9.23005C72.6413 9.2293 72.5713 9.20549 72.5639 9.18763C72.4969 9.03582 72.2402 9.02986 71.9976 9.01051C71.9455 9.00605 71.8963 8.99563 71.8465 8.9867C71.8063 8.97926 71.7609 8.96735 71.7721 8.94279C71.7847 8.91303 71.8346 8.92196 71.8777 8.92642C72.1114 8.948 72.3466 8.9681 72.5788 8.99265C72.6271 8.99712 72.7008 9.01126 72.7112 9.02837C72.8043 9.18168 73.0855 9.17721 73.3177 9.18168C73.8427 9.18964 74.3678 9.17599 74.8917 9.14075ZM121.394 23.7781C121.508 23.6501 121.683 23.5549 121.868 23.4641C122.02 23.3889 122.188 23.3227 122.28 23.22C122.32 23.1763 122.373 23.1455 122.431 23.1312C122.488 23.1169 122.549 23.1198 122.605 23.1396C122.751 23.1895 122.611 23.2453 122.563 23.3078C122.45 23.4537 122.135 23.5422 122.12 23.7156C122.113 23.8034 121.971 23.8607 121.761 23.8146C121.64 23.7891 121.517 23.7766 121.394 23.7774V23.7781ZM74.3484 16.1554C74.3261 16.209 74.4586 16.247 74.3112 16.2894C74.2852 16.2477 74.2636 16.2038 74.1602 16.1882C74.1103 16.1807 74.0188 16.1778 74.0202 16.142C74.0225 16.0974 74.12 16.0877 74.1862 16.0714C74.338 16.0341 74.4973 16.0453 74.6498 16.0684C75.0212 16.1242 75.3628 16.2113 75.6954 16.3065C75.7535 16.3236 75.8309 16.3415 75.8152 16.3817C75.8003 16.4211 75.7162 16.4263 75.6493 16.433C75.4915 16.4494 75.3829 16.4628 75.2392 16.3735C75.0413 16.2477 74.6856 16.2068 74.3484 16.1554ZM79.4402 12.8163L79.2601 12.9577C79.5711 12.9502 79.8227 12.9718 79.7847 13.1534C79.778 13.1832 79.8279 13.1824 79.8725 13.1854C79.9179 13.1891 79.9611 13.201 79.9365 13.2278C79.9157 13.2494 79.8762 13.2554 79.8264 13.2442C79.7959 13.2367 79.7438 13.2234 79.7319 13.2286C79.3903 13.3774 79.5109 13.2003 79.4669 13.134C79.3352 13.1519 79.2102 13.1713 79.0837 13.1847C78.9512 13.1995 78.8344 13.1847 78.7644 13.1236C78.6967 13.0656 78.786 13.0284 78.8627 12.9934C79.0145 12.9257 79.1551 12.8475 79.4402 12.817V12.8163ZM117.394 13.6379C117.379 13.6825 117.329 13.7287 117.249 13.7376C117.054 13.7584 116.94 13.8745 116.703 13.8425C116.685 13.8403 116.641 13.85 116.639 13.8567C116.609 13.9274 116.534 13.9497 116.438 13.8864C116.354 13.8314 116.226 13.7473 116.4 13.7011C116.566 13.658 116.595 13.6081 116.606 13.5337C116.619 13.4444 116.697 13.4206 116.853 13.4868C116.975 13.5389 117.087 13.6044 117.287 13.582C117.358 13.5746 117.399 13.6007 117.394 13.6379ZM68.5587 9.32158C68.5549 9.25758 68.7819 9.27321 68.7038 9.21591C68.6219 9.15489 68.4634 9.15042 68.3213 9.17349C68.2506 9.18465 68.1888 9.22633 68.1189 9.1787C68.072 9.1467 68.0474 9.10875 68.0816 9.07079C68.1308 9.0187 68.2327 9.03582 68.3153 9.04103C68.546 9.05293 68.7522 9.10279 68.965 9.14223C69.2552 9.19582 69.3393 9.16977 69.3832 9.02391C69.3907 9.00158 69.3698 8.96661 69.4443 8.96586C69.4755 8.96586 69.5261 8.9867 69.538 9.00307C69.599 9.09237 69.7285 9.12884 69.9324 9.13851C69.4889 9.22856 69.0394 9.29628 68.5587 9.32158ZM113.412 18.4676C113.278 18.5287 113.138 18.5019 113.013 18.5093C112.926 18.5138 112.836 18.5138 112.754 18.5264C112.667 18.5391 112.591 18.5688 112.612 18.6194C112.632 18.6671 112.725 18.6656 112.804 18.6678C112.929 18.6723 113.065 18.65 113.182 18.6976C113.058 18.7497 112.835 18.6641 112.789 18.7594C112.756 18.8286 112.938 18.8665 113.014 18.9223C113.042 18.9432 113.071 18.967 113.077 18.9915C113.087 19.0436 113.136 19.124 113.028 19.1374C112.905 19.1523 112.923 19.0645 112.884 19.022C112.833 18.967 112.841 18.8673 112.693 18.8799C112.554 18.8911 112.614 18.9871 112.606 19.0481C112.599 19.1091 112.683 19.1672 112.615 19.258C112.479 19.1061 112.4 18.9729 112.43 18.83C112.508 18.4639 112.594 18.4327 113.412 18.4676ZM122.465 22.3687C122.653 22.4312 122.72 22.5004 122.802 22.5644C122.866 22.6135 122.864 22.7058 123.092 22.6559C123.118 22.65 123.333 22.7266 123.428 22.7735C123.474 22.7966 123.401 22.8866 123.254 22.9223C123.151 22.9461 123.151 23.0161 123.097 23.0637C123.072 23.086 123.054 23.1173 122.997 23.1173C122.93 23.1188 122.946 23.0779 122.916 23.063C122.713 22.9618 122.735 22.8568 122.792 22.7259C122.843 22.6068 122.582 22.513 122.465 22.3687ZM108.363 8.42707C108.492 8.40028 108.536 8.28642 108.673 8.33033C108.794 8.36903 108.724 8.46428 108.708 8.53423C108.696 8.58335 108.632 8.60865 108.519 8.58186C108.175 8.50149 107.798 8.47023 107.428 8.42112C107.898 8.24772 108.184 8.24847 108.363 8.42707ZM70.7153 9.57163C70.8307 9.58279 70.9058 9.59396 70.981 9.59693C71.0346 9.59842 71.0844 9.58949 71.0777 9.55228C71.074 9.52475 70.9572 9.49051 71.0532 9.47414C71.2184 9.44735 71.368 9.3893 71.5473 9.396C71.6426 9.39898 71.6247 9.44512 71.5875 9.47637C71.5295 9.52549 71.5674 9.56419 71.6329 9.60289C71.6984 9.64158 71.8078 9.69814 71.7058 9.73237C71.5912 9.77107 71.4364 9.81796 71.2705 9.77256C71.0806 9.7198 70.895 9.65263 70.7153 9.57163ZM88.0593 12.6295C88.2126 12.5283 88.0273 12.3854 88.3272 12.3169C88.3451 12.3132 88.3585 12.2961 88.36 12.2849C88.3644 12.2157 88.4314 12.1807 88.5788 12.1956C88.7291 12.212 88.7916 12.2559 88.7931 12.3326C88.7968 12.4591 88.6517 12.5275 88.4329 12.5722C88.3302 12.593 88.2364 12.6287 88.0593 12.6295ZM113.545 17.2799C113.524 17.2747 113.492 17.2613 113.481 17.2643C113.245 17.3327 113.295 17.2122 113.231 17.175C113.125 17.1071 113.006 17.0622 112.882 17.0433C112.66 17.012 112.606 16.9346 112.623 16.8364C112.634 16.7813 112.643 16.7262 112.664 16.6727C112.678 16.631 112.7 16.5863 112.808 16.5759C112.891 16.5692 112.969 16.5781 113.021 16.6131C113.077 16.6526 113.079 16.7061 113.016 16.7322C112.71 16.855 112.934 16.9346 113.103 17.0209L113.573 17.2606L113.545 17.2799ZM117.216 12.9852C116.925 12.9227 116.907 13.0016 116.912 13.0939C116.914 13.1415 116.937 13.1847 116.999 13.2241C117.035 13.2464 117.089 13.2702 117.045 13.303C117.02 13.3223 116.972 13.3298 116.929 13.3231C116.843 13.3082 116.856 13.2702 116.853 13.2367C116.85 13.1861 116.85 13.1355 116.849 13.0849C116.844 12.9197 116.848 12.7545 116.723 12.5967C116.694 12.5595 116.7 12.5223 116.731 12.4851C116.793 12.4085 116.874 12.334 116.916 12.247C116.958 12.4963 116.918 12.7515 117.216 12.9852ZM99.5295 8.2693C99.5883 8.31544 99.6649 8.2894 99.711 8.308C99.7602 8.32735 99.7683 8.35637 99.7118 8.37051C99.6385 8.38256 99.5633 8.37137 99.4967 8.33851C99.394 8.29089 99.2928 8.2321 99.2876 8.1614C99.2846 8.1294 99.3858 8.10558 99.4647 8.09442C99.4894 8.08909 99.515 8.08859 99.5399 8.09293C99.7416 8.19191 100.096 8.0721 100.274 8.21275C100.314 8.24475 100.382 8.20382 100.434 8.19414C100.501 8.18075 100.559 8.18298 100.586 8.21721C100.609 8.24698 100.56 8.27451 100.513 8.27377C100.308 8.27005 100.094 8.34596 99.8971 8.244C99.784 8.18521 99.6604 8.24028 99.5295 8.27005V8.2693ZM110.089 19.2185C110.399 19.2989 110.807 19.2423 111.148 19.3331C111.232 19.3554 111.308 19.3852 111.384 19.4127C111.409 19.4224 111.438 19.4366 111.419 19.4559C111.401 19.4745 111.364 19.479 111.331 19.4723C110.956 19.3927 110.537 19.4068 110.156 19.3406C110.101 19.3314 110.046 19.319 109.991 19.3034C109.948 19.2907 109.889 19.2758 109.9 19.2468C109.918 19.2044 109.995 19.2245 110.089 19.2185ZM112.974 17.8098C113.066 17.6059 113.43 17.6758 113.635 17.6081C113.719 17.5798 113.738 17.6527 113.752 17.684C113.789 17.7651 113.743 17.8336 113.586 17.8797C113.505 17.9028 113.414 17.9035 113.39 17.8589C113.329 17.7398 113.19 17.7406 112.974 17.8098ZM72.0623 9.52623C72.0444 9.42205 72.1732 9.39675 72.3384 9.39154C72.4813 9.38633 72.6867 9.33051 72.7462 9.4027C72.7968 9.46596 72.5855 9.50689 72.4604 9.54186C72.3942 9.56121 72.3116 9.5694 72.3101 9.61926C72.3086 9.65572 72.2677 9.69219 72.1948 9.69219C72.0883 9.69219 72.1069 9.6401 72.0906 9.60661C72.0772 9.57833 72.0697 9.54856 72.0623 9.52623ZM117.51 23.1158C117.915 23.1233 117.967 23.1605 117.814 23.3153C117.743 23.3874 117.52 23.406 117.429 23.3398C117.359 23.2892 117.301 23.2252 117.292 23.1657C117.28 23.0786 117.443 23.1307 117.51 23.1158ZM108.791 8.70391C108.913 8.62577 108.983 8.57293 109.069 8.52754C109.169 8.48015 109.279 8.45632 109.39 8.45787C109.501 8.45942 109.61 8.4863 109.709 8.53647C109.793 8.5841 109.743 8.60047 109.645 8.61089C109.383 8.63842 109.122 8.66819 108.791 8.70391ZM76.4061 24.8237C76.7216 24.8312 76.7254 24.7292 76.7269 24.6228C76.968 24.66 77.0863 24.7515 77.2292 24.8289C77.2642 24.8475 77.2865 24.8743 77.2389 24.8959C77.186 24.9212 77.1019 24.9428 77.0469 24.9257C76.8556 24.8647 76.6145 24.89 76.4061 24.8237ZM116.917 9.25684C116.655 9.20847 116.481 9.16977 116.289 9.23526C116.217 9.25982 116.088 9.25312 116.029 9.20698C115.97 9.16158 115.976 9.108 116.048 9.06484C116.127 9.0187 116.222 9.04028 116.312 9.05963C116.459 9.0894 116.604 9.15191 116.774 9.04326C116.795 9.1214 116.802 9.17796 116.917 9.25684ZM72.1776 10.1037C72.1017 10.1707 72.0534 10.2206 71.9916 10.266C71.9559 10.292 71.9038 10.33 71.8242 10.2942C71.7311 10.2518 71.8465 10.2407 71.8837 10.2183L71.9909 10.158C71.8048 10.1945 71.6761 10.2176 71.5503 10.2451C71.3754 10.2823 71.3501 10.193 71.2772 10.1618C71.1983 10.1275 71.327 10.0926 71.3836 10.065C71.4134 10.0487 71.4707 10.0397 71.5049 10.0546C71.6939 10.1365 71.9209 10.1052 72.1776 10.1037ZM107.84 8.25963C107.754 8.25442 107.692 8.25219 107.631 8.24772C107.569 8.24177 107.508 8.22912 107.497 8.19563C107.488 8.16661 107.545 8.15396 107.586 8.13833C107.843 8.04233 108.018 8.03786 108.201 8.11749C108.322 8.17107 108.316 8.212 108.156 8.23358C108.047 8.24847 107.931 8.25219 107.84 8.25963ZM71.1283 8.73516C70.9765 8.71879 70.8798 8.66893 70.7696 8.63247C70.6461 8.59079 70.5263 8.54763 70.3626 8.56028C70.1758 8.57442 70.2316 8.46056 70.0493 8.45312C70.4854 8.38912 71.0286 8.53721 71.1283 8.73516ZM68.0377 8.7947C67.9149 8.89144 67.8963 8.99563 67.6336 8.94354C67.5838 8.93312 67.5339 8.9614 67.5109 8.98298C67.3918 9.09237 67.2132 9.12289 66.9788 9.07749C67.1931 8.89665 67.6247 8.89144 68.0377 8.7947ZM70.9252 8.96214C71.1336 8.95917 71.3442 9.03358 71.3523 9.10949C71.3583 9.16233 71.3129 9.20177 71.1909 9.20475C71.0673 9.20847 70.7034 9.06186 70.7272 9.01572C70.7533 8.96586 70.8589 8.96884 70.9252 8.96214ZM76.9985 16.5722C76.6591 16.5752 76.3674 16.6317 76.063 16.5819C76.2856 16.4449 76.5951 16.4375 76.9985 16.5722ZM99.0003 8.08623C99.0524 8.08772 99.112 8.08623 99.1388 8.11228C99.1655 8.13833 99.1082 8.14651 99.0785 8.15916C98.9535 8.212 98.9601 8.2507 99.1335 8.26856C99.1804 8.27377 99.2214 8.28344 99.2035 8.31023C99.1827 8.34149 99.135 8.34149 99.0785 8.32958C99.0152 8.31544 98.9445 8.30726 98.885 8.29089C98.7763 8.26112 98.5918 8.24326 98.6387 8.1681C98.6811 8.10112 98.859 8.09517 99.0003 8.08623ZM113.335 19.6658C113.313 19.6606 113.269 19.6583 113.257 19.6472C113.246 19.636 113.257 19.6137 113.275 19.6025C113.403 19.5192 113.565 19.4567 113.761 19.415C113.809 19.4021 113.86 19.4063 113.905 19.4269C113.947 19.4492 113.935 19.4745 113.896 19.4939C113.746 19.5742 113.557 19.6263 113.335 19.6658ZM104.966 17.7554C105 17.7086 104.955 17.62 105.089 17.6222C105.264 17.626 105.272 17.7234 105.304 17.7889C105.33 17.844 105.238 17.8753 105.13 17.8753C104.964 17.8753 104.98 17.8098 104.966 17.7554ZM69.0029 8.67042C68.9062 8.65182 68.799 8.6853 68.712 8.63619C68.8891 8.62577 69.1339 8.564 69.2002 8.6347C69.2805 8.71954 69.0141 8.75377 68.8772 8.79842C68.8169 8.81703 68.7135 8.86614 68.6562 8.80884C68.6078 8.75972 68.7432 8.7493 68.808 8.72475C68.8645 8.70391 68.9509 8.71507 69.0029 8.67042ZM118.596 18.9737C118.602 19.0741 118.395 19.2051 118.238 19.2118C118.162 19.2155 118.123 19.194 118.096 19.1672C118.064 19.1337 118.099 19.1002 118.155 19.0913C118.313 19.0645 118.441 19.0116 118.596 18.9737Z" fill="#9b99ff"/>
<path d="M75.4067 9.53292L74.9803 9.56492C74.8582 9.57385 74.7608 9.55971 74.76 9.49125C74.76 9.42427 74.8783 9.44139 74.9572 9.44139C75.112 9.44139 75.2467 9.47116 75.4067 9.53292ZM61.3758 11.7476C61.2969 11.8377 61.1868 11.8846 61.0662 11.9262C61.0171 11.9433 60.9598 11.9672 60.9048 11.9366C60.8541 11.9091 60.8876 11.8801 60.9353 11.8592C61.0499 11.8086 61.1719 11.7625 61.3758 11.7476ZM92.4128 14.3813C92.5662 14.3456 92.7187 14.3084 92.8408 14.3902C92.8802 14.4163 92.8675 14.4632 92.8177 14.4699C92.6428 14.4944 92.5394 14.4259 92.4128 14.3813ZM100.685 8.06837C100.661 8.07594 100.637 8.08264 100.612 8.08846C100.519 8.11302 100.41 8.14799 100.323 8.1026C100.248 8.0639 100.049 8.11004 100.081 8.04083C100.114 7.96939 100.236 8.05348 100.321 8.04083C100.396 8.02967 100.47 8.01404 100.547 8.00809C100.606 8.00362 100.673 8.00958 100.685 8.06837ZM58.056 11.1225C57.9384 11.1121 57.7955 11.1099 57.7673 11.0392C57.7449 10.9856 57.8588 10.9967 57.9154 11.0012C58.0419 11.0094 58.2011 11.0124 58.2421 11.0801C58.2622 11.1128 58.1327 11.1173 58.056 11.1225ZM121.327 20.855C121.332 20.8937 121.293 20.9115 121.233 20.9071C121.089 20.8952 120.965 20.8624 120.904 20.7969C120.878 20.7672 120.937 20.7493 120.996 20.7538C121.14 20.7642 121.262 20.7932 121.327 20.855ZM100.827 8.30204C100.797 8.28859 100.77 8.26927 100.748 8.24522C100.726 8.22118 100.709 8.19292 100.698 8.16213C100.684 8.13237 100.761 8.10632 100.787 8.1279C100.852 8.17999 101.05 8.10781 101.041 8.19116C101.036 8.24027 100.946 8.27897 100.827 8.30204ZM117.003 9.47711C116.854 9.49348 116.699 9.5292 116.582 9.46967C116.501 9.42948 116.561 9.37664 116.626 9.32083C116.708 9.40269 116.866 9.42948 117.003 9.47711ZM60.648 16.5186C60.5758 16.5149 60.5066 16.494 60.5215 16.4658C60.5535 16.4032 60.3823 16.3139 60.5007 16.2968C60.6488 16.2745 60.6465 16.3928 60.7462 16.439C60.8207 16.4739 60.7165 16.5015 60.6488 16.5186H60.648ZM78.0054 12.913C78.1193 12.9264 78.2592 12.9279 78.3075 12.9941C78.3381 13.0351 78.2495 13.044 78.1915 13.0425C78.0523 13.0403 77.9221 13.0135 77.864 12.9532C77.8387 12.9264 77.9429 12.9197 78.0054 12.913ZM103.223 24.113C103.179 24.1629 103.122 24.2008 103.009 24.1926C102.976 24.1921 102.943 24.1841 102.913 24.1692C102.883 24.1543 102.857 24.1328 102.836 24.1063C102.826 24.0937 102.835 24.0706 102.854 24.0617C102.936 24.023 102.994 24.0654 103.061 24.0788L103.223 24.113ZM112.793 16.1859C112.618 16.0639 112.644 15.9761 112.849 15.8912C112.892 15.9865 112.808 16.0721 112.793 16.1859ZM123.649 9.89906C123.925 9.80753 124.083 9.80083 124.295 9.86185C124.096 9.90278 123.9 9.90278 123.649 9.89906ZM101.443 10.033C101.445 10.0702 101.405 10.0881 101.346 10.0844C101.218 10.0769 101.108 10.0494 101.065 9.98762C101.046 9.9586 101.098 9.93776 101.159 9.94297C101.284 9.95264 101.395 9.97348 101.443 10.033ZM82.8069 24.7456C82.9208 24.759 83.0674 24.7567 83.0882 24.8312C83.0956 24.8572 83.0056 24.8736 82.9408 24.8661C82.8285 24.8527 82.7005 24.8364 82.6707 24.7776C82.6484 24.7344 82.7496 24.7486 82.8069 24.7448V24.7456ZM99.4759 10.1275C99.4328 10.1863 99.3442 10.2094 99.2333 10.2146C99.1708 10.2183 99.1291 10.2012 99.1403 10.1699C99.1619 10.1149 99.2363 10.0806 99.3546 10.0762C99.4253 10.0739 99.4595 10.0992 99.4759 10.1275ZM101.865 8.19488C101.911 8.09069 102.08 8.09516 102.212 8.07878C102.252 8.07358 102.293 8.09441 102.291 8.12046C102.29 8.14502 102.25 8.16288 102.208 8.16139C102.095 8.15692 101.993 8.1852 101.865 8.19488ZM114.313 18.9499C114.243 18.9379 114.11 18.9685 114.111 18.9059C114.113 18.8524 114.241 18.8568 114.321 18.8576C114.401 18.8576 114.534 18.8516 114.531 18.9052C114.528 18.9573 114.396 18.9409 114.313 18.9499ZM75.3323 8.03785C75.1165 8.15246 74.8947 8.16958 74.6744 8.18818C74.8523 8.12344 75.0309 8.06018 75.3323 8.03785ZM118.959 18.9588C118.959 18.9863 118.926 19.0079 118.885 19.0034C118.747 18.9886 118.71 18.929 118.668 18.8754C118.658 18.862 118.673 18.839 118.72 18.8434C118.857 18.8553 118.906 18.9097 118.959 18.958V18.9588ZM101.672 8.08548C101.666 8.11004 101.667 8.11451 101.664 8.11823C101.612 8.17851 101.537 8.22985 101.393 8.24251C101.352 8.24548 101.301 8.22241 101.319 8.20083C101.377 8.13237 101.5 8.10483 101.672 8.08548ZM71.9894 9.1519C72.0631 9.16009 72.1583 9.15934 72.1621 9.20995C72.165 9.24939 72.1048 9.26948 72.0221 9.26576C71.9403 9.26278 71.854 9.24939 71.8421 9.20771C71.8302 9.16455 71.9195 9.15934 71.9894 9.1519ZM101.14 7.89423C101.171 7.90092 101.181 7.90167 101.187 7.9039C101.247 7.92697 101.214 7.95599 101.179 7.96864C101.097 8.00064 101.155 8.08995 100.988 8.08102C100.921 8.0773 100.867 8.04827 100.855 8.01106C100.853 8.00734 100.853 8.00139 100.857 7.99916C100.944 7.95525 101.147 7.9932 101.14 7.89497V7.89423ZM114.07 18.6284C113.962 18.5592 113.956 18.4959 114.062 18.4326C114.086 18.4178 114.134 18.4178 114.151 18.4326C114.237 18.5078 114.13 18.5636 114.07 18.6276V18.6284ZM76.0259 24.7791C76.0106 24.7451 75.9886 24.7146 75.961 24.6895C75.9335 24.6644 75.9011 24.6452 75.8659 24.6332C75.8287 24.6198 75.7386 24.6034 75.8123 24.5677C75.8741 24.5379 75.9686 24.5454 75.9901 24.5752C76.0281 24.6265 76.1048 24.6793 76.0259 24.7791ZM116.949 9.07525C117.092 9.05888 117.216 9.04995 117.307 9.09758C117.356 9.12288 117.279 9.13776 117.238 9.14818C117.09 9.18911 117.021 9.1452 116.949 9.07525ZM88.7425 11.2542C88.6301 11.2862 88.747 11.3807 88.5751 11.4008C88.5208 11.4075 88.4992 11.3688 88.5222 11.3577C88.6257 11.31 88.4895 11.2133 88.6711 11.1895C88.7276 11.182 88.7358 11.2215 88.7425 11.2542ZM114.081 15.6315C114.143 15.6315 114.197 15.6412 114.188 15.6725C114.176 15.7179 114.107 15.7469 114.017 15.7573C113.964 15.7647 113.937 15.7424 113.937 15.7201C113.936 15.6732 113.984 15.6419 114.081 15.6315Z" fill="#9b99ff"/>
</g>
<mask id="mask1_56_339" style="mask-type:luminance" maskUnits="userSpaceOnUse" x="11" y="5" width="45" height="22">
<path d="M55.4423 5.35132H11.4788V26.6849H55.443L55.4423 5.35132Z" fill="white"/>
</mask>
<g mask="url(#mask1_56_339)">
<path d="M33.462 26.6849C21.3392 26.6849 11.4788 21.8998 11.4788 16.0185C11.4788 10.1379 21.3392 5.35132 33.462 5.35132C45.5841 5.35132 55.4453 10.1364 55.4453 16.0185C55.4453 21.9005 45.5841 26.6849 33.462 26.6849ZM33.462 5.75095C21.7947 5.75095 12.3026 10.3575 12.3026 16.0185C12.3026 21.6795 21.7947 26.2845 33.459 26.2845C45.1234 26.2845 54.6155 21.678 54.6155 16.0185C54.6155 10.3589 45.1286 5.75095 33.462 5.75095Z" fill="#9b99ff"/>
<path d="M33.4621 26.6849C23.7058 26.6849 15.7676 21.8998 15.7676 16.017C15.7676 10.1349 23.7036 5.35132 33.4621 5.35132C43.2199 5.35132 51.1559 10.1364 51.1559 16.0185C51.1559 21.9005 43.2199 26.6849 33.4621 26.6849ZM33.4621 5.75095C24.162 5.75095 16.5944 10.3575 16.5944 16.017C16.5944 21.6773 24.162 26.283 33.4621 26.283C42.7614 26.283 50.3291 21.6765 50.3291 16.017C50.3291 10.3575 42.7614 5.75095 33.4621 5.75095Z" fill="#9b99ff"/>
<path d="M33.4623 26.6849C26.1931 26.6849 20.2769 21.8998 20.2769 16.017C20.2769 10.1349 26.1902 5.35132 33.4623 5.35132C40.7338 5.35132 46.6471 10.1364 46.6471 16.0185C46.6471 21.9005 40.7338 26.6849 33.4623 26.6849ZM33.4623 5.75095C26.6486 5.75095 21.1036 10.3575 21.1036 16.017C21.1036 21.6773 26.6478 26.283 33.4623 26.283C40.2754 26.283 45.8203 21.6765 45.8203 16.017C45.8203 10.3575 40.2761 5.75095 33.4623 5.75095Z" fill="#9b99ff"/>
<path d="M33.4624 26.6849C28.5247 26.6849 24.6587 21.9995 24.6587 16.017C24.6587 10.0352 28.5247 5.35132 33.4624 5.35132C38.3993 5.35132 42.2661 10.0367 42.2661 16.0185C42.2661 22.001 38.3993 26.6849 33.4624 26.6849ZM33.4624 5.75095C29.1372 5.75095 25.4825 10.4535 25.4825 16.017C25.4825 21.5813 29.1372 26.283 33.4617 26.283C37.7869 26.283 41.4416 21.5828 41.4416 16.017C41.4416 10.452 37.7869 5.75095 33.4624 5.75095Z" fill="#9b99ff"/>
<path d="M33.4625 26.6849C30.4202 26.6849 28.7793 21.1891 28.7793 16.017C28.7793 10.8449 30.4202 5.35132 33.4617 5.35132C36.5039 5.35132 38.1441 10.8464 38.1441 16.0185C38.1441 21.1906 36.504 26.6849 33.4625 26.6849ZM33.4625 5.75095C31.887 5.75095 29.6068 9.40713 29.6068 16.017C29.6068 22.6269 31.887 26.283 33.4617 26.283C35.0372 26.283 37.3173 22.6269 37.3173 16.017C37.3173 9.40713 35.0372 5.75095 33.4625 5.75095Z" fill="#9b99ff"/>
<path d="M33.8741 5.55153H33.0503V26.4847H33.8741V5.55153Z" fill="#9b99ff"/>
<path d="M55.0301 15.819H11.8904V16.2187H55.0308V15.8183L55.0301 15.819Z" fill="#9b99ff"/>
</g>
<path d="M44.1292 3.21777H43.3054V0.559535H44.1292V3.21777ZM48.764 1.36623V0.559535H49.5566V3.21777H48.61L46.9251 1.93033C46.5585 1.65798 46.2018 1.37252 45.8557 1.07451C45.8766 1.37144 45.887 1.81647 45.887 2.41181V3.21777H45.0863V0.559535H46.0329L47.7251 1.84772C48.0895 2.12408 48.4461 2.41045 48.7945 2.70651C48.7705 2.26018 48.7599 1.81319 48.764 1.36623ZM50.1199 0.559535H54.5903V0.918233H52.7744V3.21777H51.9357V0.918233H50.1199V0.559535ZM59.0554 0.559535V0.918233H55.97V1.66837H58.7629V2.01963H55.97V2.85907H59.0323V3.21702H55.1469V0.559535H59.0554ZM63.8621 2.47879L63.9157 2.8933C63.9356 3.02031 64.0013 3.13567 64.1002 3.21777H63.2541C63.1514 3.14558 63.0978 3.03247 63.0926 2.87842L63.0695 2.59414C63.0671 2.51774 63.0436 2.4435 63.0015 2.37966C62.9595 2.31582 62.9006 2.26487 62.8314 2.23247C62.687 2.16028 62.4563 2.12381 62.1385 2.12381H60.546V3.21777H59.7229V0.559535H62.1155C62.7004 0.559535 63.1596 0.625767 63.4922 0.757488C63.8308 0.886977 64.0005 1.06633 64.0005 1.29553C64.0005 1.45702 63.9186 1.59321 63.7549 1.70558C63.5949 1.81572 63.3694 1.89237 63.0777 1.93702C63.3441 1.97423 63.5391 2.03823 63.6619 2.12753C63.7203 2.16642 63.7689 2.21844 63.8036 2.27943C63.8384 2.34042 63.8584 2.40869 63.8621 2.47879ZM60.546 1.79191H62.1311C62.4489 1.79191 62.6974 1.75172 62.8768 1.67284C63.0621 1.59247 63.1544 1.47935 63.1544 1.33274C63.1544 1.19135 63.0591 1.08344 62.8693 1.01126C62.6848 0.93907 62.4176 0.903349 62.0693 0.903349H60.546V1.79191ZM68.4344 1.36623V0.559535H69.2269V3.21777H68.2803L66.5955 1.93033C66.2289 1.6579 65.8722 1.37245 65.5261 1.07451C65.5469 1.37144 65.5566 1.81647 65.5566 2.41181V3.21777H64.7566V0.559535H65.7032L67.3955 1.84772C67.7596 2.12426 68.1162 2.41063 68.4649 2.70651C68.4407 2.26018 68.4305 1.8132 68.4344 1.36623ZM74.9237 3.21777H74.0544L73.5156 2.52716H71.0539L70.5225 3.21777H69.669L71.8077 0.559535H72.7536L74.9237 3.21777ZM71.4304 2.03451L71.3151 2.17963H73.2463L73.1309 2.03451C72.8374 1.67801 72.5526 1.31449 72.2766 0.944279C71.9956 1.3085 71.7135 1.67191 71.4304 2.03451ZM74.1251 0.559535H78.5955V0.918233H76.7797V3.21777H75.941V0.918233H74.1251V0.559535ZM79.9752 3.21777H79.1521V0.559535H79.9752V3.21777ZM83.3798 3.2773C82.5694 3.2773 81.9227 3.1493 81.4405 2.8933C80.9486 2.63953 80.7023 2.30465 80.7023 1.88865C80.7023 1.47563 80.9486 1.14 81.4405 0.881023C81.9227 0.627256 82.5694 0.5 83.3798 0.5C84.1798 0.5 84.8258 0.626512 85.3184 0.881023C85.8059 1.14 86.0492 1.47563 86.0492 1.88865C86.0492 2.30167 85.8059 2.63656 85.3184 2.8933C84.8258 3.1493 84.1798 3.2773 83.3798 3.2773ZM82.0559 2.63953C82.3841 2.82558 82.8254 2.91935 83.3798 2.91935C83.9335 2.91935 84.3748 2.82558 84.703 2.63953C85.0312 2.45721 85.1957 2.20791 85.1957 1.88865C85.1957 1.57014 85.0312 1.3186 84.703 1.13479C84.3696 0.950233 83.9283 0.858698 83.3798 0.858698C82.8306 0.858698 82.3901 0.950233 82.0559 1.13405C81.7225 1.32381 81.5558 1.57535 81.5558 1.88865C81.5558 2.20493 81.7225 2.45498 82.0559 2.63953ZM90.4489 1.36623V0.559535H91.2414V3.21777H90.2948L88.61 1.93033C88.2433 1.65807 87.8866 1.37262 87.5406 1.07451C87.5607 1.37144 87.5711 1.81647 87.5711 2.41181V3.21777H86.7711V0.559535H87.7177L89.41 1.84772C89.774 2.12444 90.1306 2.4108 90.4794 2.70651C90.455 2.26019 90.4449 1.8132 90.4489 1.36623ZM96.9382 3.21777H96.0682L95.5302 2.52716H93.0676L92.537 3.21777H91.6835L93.8223 0.559535H94.7681L96.9382 3.21777ZM93.445 2.03451L93.3296 2.17963H95.2608L95.1454 2.03451C94.8731 1.70558 94.5888 1.34242 94.2911 0.944279C94.0101 1.30848 93.728 1.67189 93.445 2.03451ZM98.2033 0.559535V2.85907H100.888V3.21777H97.3795V0.559535H98.2033ZM46.2241 32.0178H45.401V29.3595H46.2241V32.0178ZM50.8597 30.1662V29.3595H51.6515V32.0178H50.7056L49.0208 30.7303C48.6542 30.4579 48.2975 30.1725 47.9514 29.8745C47.9715 30.1714 47.9811 30.6165 47.9811 31.2118V32.0178H47.1819V29.3595H48.1277L49.8208 30.6477C50.277 30.999 50.6334 31.2847 50.8902 31.5065C50.866 31.0602 50.8558 30.6132 50.8597 30.1662ZM55.1618 30.9052L56.2855 29.3595H57.1391L55.1387 32.0178H54.2003L52.1612 29.3595H53.0304L54.1765 30.9052C54.367 31.1642 54.5307 31.4083 54.6691 31.6367C54.7465 31.5125 54.9103 31.2684 55.1618 30.9052ZM61.5484 29.3595V29.7182H58.4637V30.4684H61.2567V30.8196H58.4637V31.6598H61.5253V32.0178H57.6414V29.3595H61.5484ZM64.2327 32.0773C63.5093 32.0773 62.9452 31.9977 62.5397 31.8392C62.1393 31.6792 61.9369 31.447 61.9317 31.1404H62.7547C62.7703 31.5385 63.2682 31.738 64.2476 31.738C64.6531 31.738 64.9635 31.7007 65.1785 31.6263C65.3988 31.5489 65.5097 31.438 65.5097 31.2937C65.5097 31.1768 65.4204 31.0868 65.2403 31.025C65.0602 30.9603 64.7372 30.903 64.2706 30.8531L63.8018 30.8047C63.237 30.7497 62.812 30.6604 62.524 30.5361C62.2368 30.4111 62.0931 30.2399 62.0931 30.0204C62.0931 29.8016 62.268 29.6274 62.6163 29.498C62.9661 29.3662 63.4371 29.3 64.0325 29.3C64.7506 29.3 65.2887 29.3744 65.6474 29.524C66.012 29.6728 66.1996 29.879 66.2092 30.1402H65.3944C65.3683 29.9683 65.2507 29.8425 65.0401 29.7629C64.8347 29.681 64.5013 29.6393 64.0399 29.6393C63.6812 29.6393 63.4066 29.6721 63.2169 29.7368C63.0271 29.8016 62.9318 29.8931 62.9318 30.0129C62.9318 30.135 63.0167 30.2273 63.1856 30.289C63.3553 30.356 63.6678 30.414 64.1248 30.4609L64.601 30.5093C65.2277 30.574 65.6764 30.6678 65.948 30.7899C66.2249 30.9112 66.3633 31.0756 66.3633 31.2825C66.3633 31.5288 66.1735 31.7231 65.794 31.8652C65.4197 32.0066 64.8995 32.0773 64.2327 32.0773ZM66.341 29.3595H70.8105V29.7182H68.9947V32.0178H68.156V29.7182H66.3402L66.341 29.3595ZM74.7599 30.737L75.845 29.3603H76.9917V32.0178H76.1992V31.185C76.1992 30.586 76.2096 30.1357 76.2297 29.838C76.1218 29.9966 75.9685 30.2027 75.7683 30.4535L74.5292 32.0178H73.8371L72.5832 30.4535C72.4286 30.2545 72.2773 30.0531 72.1292 29.8492C72.1493 30.1454 72.1597 30.5904 72.1597 31.185V32.0185H71.3672V29.3595H72.5058L73.6295 30.775C73.8602 31.0682 74.047 31.3182 74.1906 31.5251C74.3603 31.2788 74.5501 31.0161 74.7599 30.737ZM81.8572 29.3595V29.7182H78.7726V30.4684H81.5655V30.8196H78.7726V31.6598H81.8342V32.0178H77.9495V29.3595H81.8572ZM86.2025 30.1662V29.3595H86.9951V32.0178H86.0485L84.3637 30.7303C83.997 30.458 83.6403 30.1726 83.2943 29.8745C83.3151 30.1714 83.3248 30.6165 83.3248 31.2118V32.0178H82.5248V29.3595H83.4714L85.1637 30.6477C85.528 30.9241 85.8846 31.2104 86.233 31.5065C86.2091 31.0602 86.1989 30.6132 86.2025 30.1662ZM87.5584 29.3595H92.0288V29.7182H90.213V32.0178H89.3743V29.7182H87.5584V29.3595ZM94.4288 32.0773C93.7054 32.0773 93.1413 31.9977 92.7357 31.8392C92.3361 31.6792 92.1337 31.447 92.1285 31.1404H92.9516C92.9672 31.5385 93.4643 31.738 94.4444 31.738C94.8492 31.738 95.1596 31.7007 95.3754 31.6263C95.5956 31.5489 95.7058 31.438 95.7058 31.2937C95.7058 31.1768 95.6165 31.0868 95.4364 31.025C95.257 30.9603 94.9341 30.903 94.4675 30.8531L93.9979 30.8047C93.4338 30.7497 93.0081 30.6604 92.7209 30.5361C92.4336 30.4111 92.29 30.2399 92.29 30.0204C92.29 29.8016 92.4641 29.6274 92.8131 29.498C93.1622 29.3662 93.634 29.3 94.2286 29.3C94.9467 29.3 95.4855 29.3744 95.8442 29.524C96.2089 29.6728 96.3957 29.879 96.4061 30.1402H95.5904C95.5644 29.9683 95.4468 29.8425 95.2362 29.7629C95.0316 29.681 94.6982 29.6393 94.236 29.6393C93.8773 29.6393 93.6027 29.6721 93.413 29.7368C93.2232 29.8016 93.1287 29.8931 93.1287 30.0129C93.1287 30.135 93.2128 30.2273 93.3824 30.289C93.5514 30.356 93.8647 30.414 94.3209 30.4609L94.7979 30.5093C95.4237 30.574 95.8725 30.6678 96.1441 30.7899C96.4217 30.9112 96.5601 31.0756 96.5601 31.2825C96.5601 31.5288 96.3704 31.7231 95.9908 31.8652C95.6165 32.0066 95.0956 32.0773 94.4288 32.0773Z" fill="#9b99ff"/>
<path d="M40.0561 2.15137H32.3611C15.9717 2.15137 2.68555 8.59825 2.68555 16.5514C2.68555 24.5045 15.9717 30.9514 32.3619 30.9514H40.0554M103.805 2.15137H111.498C127.888 2.15137 141.175 8.59825 141.175 16.5514C141.175 24.5045 127.888 30.9514 111.498 30.9514H103.805" stroke="#9b99ff" stroke-width="1.05526"/>
</g>
</g>
<defs>
<clipPath id="clip0_56_339">
<rect width="143.04" height="32" fill="white" transform="translate(0.410156 0.5)"/>
</clipPath>
<clipPath id="clip1_56_339">
<rect width="142.886" height="32" fill="white" transform="translate(0.487305 0.5)"/>
</clipPath>
</defs>
</svg>
