<svg width="163" height="33" viewBox="0 0 163 33" fill="none" xmlns="http://www.w3.org/2000/svg">
<g clip-path="url(#clip0_56_320)">
<g clip-path="url(#clip1_56_320)">
<mask id="mask0_56_320" style="mask-type:luminance" maskUnits="userSpaceOnUse" x="0" y="0" width="163" height="33">
<path d="M0.635498 0.5H162.275V32.8284H0.635498V0.5Z" fill="white"/>
</mask>
<g mask="url(#mask0_56_320)">
<path fill-rule="evenodd" clip-rule="evenodd" d="M161.446 1.32863H1.46411V31.9998H161.446V1.32863ZM0.635498 0.5V32.8284H162.275V0.5H0.635498Z" fill="#E9EAE2"/>
<path d="M32.8225 27.8549C31.5686 27.8549 30.5639 27.6857 29.8077 27.3471C29.0717 26.9892 28.4949 26.532 28.0772 25.9745C27.6739 25.3856 27.3806 24.7286 27.2115 24.0351C27.0536 23.3045 26.9243 22.5679 26.8241 21.8271C26.7273 21.089 26.6178 20.3526 26.4957 19.6183C26.3761 18.8823 26.1471 18.2356 25.8094 17.6789C25.4709 17.1021 24.9841 16.644 24.3467 16.3063C23.7302 15.9484 22.8747 15.769 21.7808 15.769H15.902V24.9598C15.902 25.5374 16.0115 26.004 16.2305 26.3627C16.4688 26.7012 16.7568 26.9598 17.0953 27.1383C17.431 27.3168 17.7942 27.438 18.1698 27.497C18.5479 27.5366 18.8957 27.556 19.214 27.556V27.8549H7.81445V27.556C8.13277 27.556 8.4814 27.5366 8.85866 27.497C9.23761 27.4372 9.59551 27.3177 9.93319 27.1383C10.2717 26.9598 10.5505 26.7004 10.7694 26.3627C11.0077 26.0048 11.1273 25.5374 11.1273 24.9598V8.36861C11.1273 7.79092 11.0077 7.33366 10.7694 6.99598C10.5695 6.65602 10.2803 6.3773 9.93319 6.19008C9.59981 6.01243 9.23522 5.90091 8.85951 5.86166C8.51428 5.80482 8.16516 5.77498 7.81529 5.7724V5.47345H21.7808C25.3218 5.47345 27.9677 5.92145 29.7185 6.81661C31.4894 7.6924 32.3745 8.91513 32.3745 10.4873C32.3745 11.78 31.7976 12.8646 30.6439 13.7396C29.5096 14.6153 27.7985 15.2116 25.5113 15.5299C26.6448 15.7884 27.5795 16.1572 28.3155 16.6347C29.0717 17.1122 29.6789 17.6587 30.1361 18.276C30.6006 18.8684 30.9637 19.5337 31.2107 20.2448C31.449 20.9412 31.6385 21.6377 31.7774 22.3341C31.9374 23.0103 32.0763 23.6671 32.1951 24.3038C32.3147 24.9202 32.4738 25.4777 32.6726 25.9745C32.8721 26.452 33.1399 26.8402 33.4785 27.1383C33.817 27.417 34.2945 27.556 34.9109 27.556V27.8549H32.8225ZM21.7808 15.1728C22.9345 15.1728 23.8793 15.0431 24.6153 14.7838C25.3715 14.5059 25.9686 14.1471 26.4065 13.7101C26.827 13.2803 27.1433 12.7597 27.3311 12.1884C27.5106 11.6289 27.6012 11.0446 27.5997 10.457C27.5997 9.88019 27.5105 9.33282 27.3311 8.81577C27.1501 8.27592 26.8314 7.79263 26.4065 7.41366C25.9686 6.99513 25.3715 6.66755 24.6153 6.4284C23.8793 6.19008 22.9345 6.0705 21.7808 6.0705H15.902V15.172H21.7799L21.7808 15.1728Z" fill="#E9EAE2"/>
<path fill-rule="evenodd" clip-rule="evenodd" d="M40.4233 32.8284V0.5H41.2528V32.8284H40.4233Z" fill="#E9EAE2"/>
<path fill-rule="evenodd" clip-rule="evenodd" d="M40.4233 12.105H162.275V12.9337H40.4242V12.105H40.4233Z" fill="#E9EAE2"/>
<path d="M81.4946 8.05117L81.5443 8.93033C81.5502 9.21243 81.6108 9.44149 81.727 9.61833H80.5742C80.4749 9.45243 80.4226 9.21749 80.4167 8.91349L80.3915 8.26675C80.3755 7.90801 80.293 7.65959 80.1439 7.52064C79.9999 7.37749 79.7675 7.30591 79.4475 7.30591H77.9882V9.61833H76.869V3.71601H79.5469C80.2037 3.71601 80.7157 3.86506 81.0795 4.16401C81.4449 4.46212 81.6268 4.86885 81.6268 5.38254C81.6268 6.08991 81.2984 6.5598 80.6416 6.79138C80.9388 6.8857 81.1519 7.03475 81.2791 7.23938C81.4121 7.43812 81.4837 7.70928 81.4946 8.05117ZM77.9882 4.63643V6.42675H79.4803C79.7953 6.42675 80.0387 6.34928 80.2096 6.19517C80.3864 6.03517 80.4749 5.80528 80.4749 5.50633C80.4749 5.22506 80.3839 5.00949 80.2012 4.86043C80.0243 4.71138 79.7709 4.63643 79.4391 4.63643H77.9882ZM86.7341 3.71685V4.71896H83.5005V6.1118H86.4267V7.07349H83.5013V8.61454H86.7173V9.61833H82.3822V3.71601L86.7341 3.71685ZM89.6629 9.75054C88.8621 9.75054 88.2406 9.57117 87.7985 9.21159C87.3615 8.85285 87.1408 8.33917 87.1349 7.67054H88.2372C88.2431 8.08991 88.3678 8.39138 88.6103 8.57412C88.8595 8.75601 89.2216 8.84696 89.6966 8.84696C90.0831 8.84696 90.3787 8.77538 90.5833 8.63222C90.7879 8.48233 90.8898 8.27012 90.8898 7.99391C90.8898 7.76149 90.8014 7.58464 90.6246 7.46338C90.4536 7.34128 90.1387 7.23349 89.6797 7.14001L89.1821 7.04064C87.9172 6.80233 87.284 6.20612 87.284 5.24949C87.284 4.7417 87.4777 4.33833 87.8642 4.03938C88.2516 3.73622 88.7871 3.5838 89.4726 3.5838C90.2515 3.5838 90.8401 3.7497 91.2384 4.08064C91.6418 4.41243 91.854 4.87643 91.8767 5.47349H90.7905C90.7686 5.13664 90.6549 4.88822 90.4511 4.72738C90.2515 4.56738 89.9315 4.48738 89.4894 4.48738C89.1467 4.48738 88.884 4.55054 88.7021 4.6777C88.6141 4.73658 88.5428 4.81706 88.4949 4.91143C88.4469 5.0058 88.4241 5.11089 88.4284 5.21664C88.4284 5.45412 88.5109 5.63685 88.6768 5.76401C88.8486 5.89033 89.1492 5.99896 89.5804 6.08738L90.094 6.18675C90.7854 6.32485 91.2822 6.53201 91.5862 6.80822C91.8961 7.07938 92.0502 7.45496 92.0502 7.9358C92.0502 8.51012 91.8405 8.95812 91.4203 9.27812C91.001 9.59306 90.4149 9.75054 89.6629 9.75054ZM92.0393 3.71685H96.9461V4.71896H95.0565V9.61833H93.9289V4.71896H92.0393V3.71685ZM102.137 8.05117L102.186 8.93033C102.192 9.21243 102.253 9.44149 102.368 9.61833H101.216C101.117 9.45243 101.065 9.21749 101.059 8.91349L101.034 8.26675C101.018 7.90801 100.934 7.65959 100.785 7.52064C100.642 7.37749 100.41 7.30591 100.089 7.30591H98.6303V9.61833H97.5112V3.71601H100.189C100.847 3.71601 101.358 3.86506 101.722 4.16401C102.087 4.46212 102.269 4.86885 102.269 5.38254C102.269 6.08991 101.941 6.5598 101.283 6.79138C101.581 6.8857 101.794 7.03475 101.921 7.23938C102.053 7.43812 102.126 7.70928 102.137 8.05117ZM98.6303 4.63643V6.42675H100.122C100.437 6.42675 100.681 6.34928 100.852 6.19517C101.029 6.03517 101.117 5.80528 101.117 5.50633C101.117 5.22506 101.026 5.00949 100.843 4.86043C100.666 4.71138 100.412 4.63643 100.081 4.63643H98.6303ZM104.143 9.61833H103.023V3.71601H104.143V9.61833ZM107.723 9.75054C106.873 9.75054 106.185 9.4718 105.659 8.91349C105.129 8.35517 104.863 7.60654 104.863 6.66759C104.863 5.72191 105.126 4.97075 105.651 4.41243C106.17 3.86001 106.862 3.5838 107.723 3.5838C108.415 3.5838 109.002 3.76906 109.489 4.13959C109.975 4.50928 110.279 5.0457 110.401 5.74717H109.265C109.166 5.3598 108.98 5.06759 108.71 4.86885C108.445 4.66422 108.116 4.56149 107.723 4.56149C107.199 4.56149 106.784 4.74928 106.48 5.1257C106.181 5.49622 106.032 6.00991 106.032 6.66675C106.032 7.33033 106.181 7.84738 106.48 8.21706C106.778 8.58759 107.193 8.77285 107.723 8.77285C108.132 8.77285 108.484 8.65159 108.776 8.40822C109.069 8.16485 109.246 7.82717 109.306 7.39685H110.425C110.354 8.14801 110.061 8.72822 109.547 9.13749C109.039 9.54675 108.431 9.75054 107.723 9.75054ZM110.341 3.71685H115.249V4.71896H113.359V9.61833H112.232V4.71896H110.341V3.71685ZM120.165 3.71685V4.71896H116.932V6.1118H119.859V7.07349H116.932V8.61454H120.149V9.61833H115.814V3.71601L120.165 3.71685ZM120.857 3.71685H123.112C124.056 3.71685 124.786 3.97875 125.299 4.50338C125.814 5.03391 126.071 5.75559 126.071 6.66759C126.071 7.57875 125.814 8.29706 125.299 8.82254C124.786 9.35307 124.056 9.61833 123.112 9.61833H120.857V3.71685ZM121.976 8.65664H123.096C123.675 8.65664 124.123 8.48822 124.439 8.15138C124.753 7.80864 124.91 7.31349 124.91 6.66759C124.91 6.02085 124.753 5.52906 124.439 5.19138C124.123 4.84949 123.675 4.6777 123.096 4.6777H121.976V8.65664ZM76.3436 17.092H77.9225C78.5835 17.092 79.0947 17.2756 79.4542 17.6436C79.8138 18.0141 79.9932 18.5194 79.9932 19.1577C79.9932 19.796 79.8138 20.2987 79.4542 20.6667C79.0947 21.0373 78.5835 21.2234 77.9216 21.2234H76.3444L76.3436 17.092ZM77.1267 20.5505H77.9107C78.3166 20.5505 78.6307 20.4326 78.8505 20.1969C79.0711 19.9569 79.1814 19.6099 79.1814 19.1577C79.1814 18.7055 79.0719 18.3611 78.8505 18.1244C78.6307 17.8853 78.3166 17.7649 77.9107 17.7649H77.1275L77.1267 20.5505ZM83.8862 20.724C83.5072 21.119 83.0079 21.316 82.3889 21.316C81.77 21.316 81.2715 21.119 80.8925 20.724C80.5136 20.3257 80.3233 19.8036 80.3233 19.1577C80.3233 18.5118 80.5127 17.9897 80.8925 17.5914C81.2715 17.1956 81.77 16.9994 82.3889 16.9994C83.0079 16.9994 83.5072 17.1964 83.8862 17.5914C84.2617 17.9813 84.4487 18.5042 84.4487 19.1577C84.4487 19.8112 84.2617 20.3333 83.8862 20.724ZM81.1409 19.1577C81.1409 19.6099 81.2555 19.9678 81.4837 20.2314C81.7119 20.4941 82.0142 20.6255 82.3889 20.6255C82.7679 20.6255 83.0719 20.4941 83.3001 20.2314C83.5241 19.972 83.6369 19.6141 83.6369 19.1577C83.6369 18.7013 83.5249 18.3434 83.3001 18.084C83.0719 17.8213 82.7679 17.6899 82.3889 17.6899C82.0142 17.6899 81.7127 17.8213 81.4837 18.084C81.2563 18.3476 81.1409 18.7055 81.1409 19.1577ZM88.937 18.1716V17.092H89.6907V21.2234H88.8208L87.6714 19.3842C87.4098 18.9799 87.164 18.5655 86.9345 18.1421C86.9505 18.5758 86.9581 19.2427 86.9581 20.1438V21.2234H86.2036V17.092H87.0743L88.2288 18.9312C88.5732 19.4886 88.8166 19.9021 88.9598 20.1733C88.9435 19.5062 88.9359 18.8389 88.937 18.1716ZM93.7571 20.724C93.3782 21.119 92.8788 21.316 92.2599 21.316C91.641 21.316 91.1424 21.119 90.7635 20.724C90.3837 20.3257 90.1943 19.8036 90.1943 19.1577C90.1943 18.5118 90.3837 17.9897 90.7635 17.5914C91.1424 17.1956 91.641 16.9994 92.2599 16.9994C92.8788 16.9994 93.3782 17.1964 93.7571 17.5914C94.1327 17.9813 94.3197 18.5042 94.3197 19.1577C94.3197 19.8112 94.1327 20.3333 93.7571 20.724ZM91.0128 19.1577C91.0128 19.6099 91.1264 19.9678 91.3547 20.2314C91.5829 20.4941 91.8852 20.6255 92.2599 20.6255C92.6388 20.6255 92.9428 20.4941 93.171 20.2314C93.395 19.972 93.5079 19.6141 93.5079 19.1577C93.5079 18.7013 93.395 18.3434 93.171 18.084C92.9428 17.8213 92.6388 17.6899 92.2599 17.6899C91.8852 17.6899 91.5829 17.8213 91.3547 18.084C91.1264 18.3476 91.0128 18.7055 91.0128 19.1577ZM94.2784 17.092H97.7133V17.7943H96.3904V21.2234H95.6013V17.7943H94.2784V17.092ZM103.184 21.2234H102.354L102.03 20.3122H100.219L99.9002 21.2234H99.0935L100.666 17.092H101.583L103.184 21.2234ZM100.613 19.1981L100.457 19.6444H101.792L101.629 19.1981C101.493 18.8537 101.323 18.3813 101.119 17.7825C100.956 18.2625 100.788 18.7341 100.613 19.1981ZM105.093 21.3169C104.497 21.3169 104.015 21.1206 103.648 20.7299C103.277 20.3392 103.091 19.8154 103.091 19.1577C103.091 18.4966 103.275 17.9703 103.642 17.5796C104.006 17.1922 104.49 16.9985 105.093 16.9985C105.577 16.9985 105.988 17.1291 106.329 17.3876C106.67 17.647 106.882 18.0225 106.967 18.5135H106.172C106.103 18.2432 105.973 18.0377 105.784 17.8987C105.598 17.7556 105.368 17.684 105.093 17.684C104.725 17.684 104.436 17.8154 104.223 18.0781C104.014 18.3375 103.909 18.6971 103.909 19.1577C103.909 19.6217 104.014 19.983 104.223 20.2432C104.431 20.5017 104.722 20.6314 105.093 20.6314C105.38 20.6314 105.625 20.5472 105.83 20.3762C106.035 20.2061 106.159 19.9703 106.202 19.6689H106.985C106.934 20.1943 106.73 20.6002 106.37 20.8865C106.014 21.1729 105.588 21.3169 105.093 21.3169ZM109.298 21.3169C108.702 21.3169 108.22 21.1206 107.853 20.7299C107.482 20.3392 107.295 19.8154 107.295 19.1577C107.295 18.4966 107.48 17.9703 107.847 17.5796C108.211 17.1922 108.694 16.9985 109.298 16.9985C109.781 16.9985 110.193 17.1291 110.533 17.3876C110.874 17.647 111.087 18.0225 111.172 18.5135H110.377C110.308 18.2432 110.178 18.0377 109.988 17.8987C109.802 17.7556 109.572 17.684 109.298 17.684C108.93 17.684 108.64 17.8154 108.427 18.0781C108.218 18.3375 108.114 18.6971 108.114 19.1577C108.114 19.6217 108.218 19.983 108.427 20.2432C108.636 20.5017 108.927 20.6314 109.298 20.6314C109.584 20.6314 109.829 20.5472 110.035 20.3762C110.239 20.2061 110.363 19.9703 110.406 19.6689H111.189C111.139 20.1943 110.934 20.6002 110.575 20.8865C110.218 21.1729 109.793 21.3169 109.298 21.3169ZM114.721 17.092V17.7943H112.457V18.7686H114.506V19.4423H112.457V20.5211H114.709V21.2234H111.674V17.092H114.721ZM116.771 21.3169C116.211 21.3169 115.775 21.1905 115.465 20.9387C115.161 20.6878 115.006 20.3274 115.001 19.86H115.774C115.777 20.1539 115.865 20.3653 116.035 20.4916C116.209 20.6196 116.462 20.6836 116.794 20.6836C117.065 20.6836 117.272 20.6331 117.415 20.5329C117.558 20.4284 117.63 20.2802 117.63 20.0865C117.634 20.0138 117.619 19.9412 117.586 19.876C117.554 19.8107 117.505 19.755 117.444 19.7143C117.324 19.6301 117.105 19.5543 116.782 19.4886L116.435 19.4187C115.549 19.252 115.106 18.8343 115.106 18.1657C115.106 17.8095 115.241 17.5274 115.513 17.3185C115.783 17.1055 116.158 16.9985 116.638 16.9985C117.183 16.9985 117.595 17.1156 117.874 17.3472C118.157 17.5796 118.305 17.9046 118.32 18.3223H117.56C117.544 18.0865 117.466 17.9122 117.323 17.8002C117.183 17.6874 116.959 17.6318 116.649 17.6318C116.409 17.6318 116.226 17.6764 116.098 17.7649C116.036 17.8062 115.987 17.8626 115.953 17.9286C115.92 17.9946 115.904 18.0681 115.907 18.1421C115.907 18.3089 115.965 18.4369 116.081 18.5253C116.201 18.6137 116.412 18.6895 116.713 18.7518L117.074 18.8209C117.557 18.9177 117.905 19.0625 118.117 19.2562C118.334 19.4457 118.443 19.7093 118.443 20.0453C118.443 20.4478 118.295 20.7611 118.002 20.9851C117.707 21.2057 117.298 21.3169 116.771 21.3169ZM120.506 21.3169C119.944 21.3169 119.51 21.1905 119.2 20.9387C118.894 20.6878 118.739 20.3274 118.736 19.86H119.507C119.512 20.1539 119.598 20.3653 119.768 20.4916C119.943 20.6196 120.196 20.6836 120.529 20.6836C120.799 20.6836 121.007 20.6331 121.149 20.5329C121.292 20.4284 121.363 20.2802 121.363 20.0865C121.367 20.0138 121.353 19.9413 121.32 19.8761C121.288 19.8109 121.239 19.7551 121.179 19.7143C121.059 19.6301 120.839 19.5543 120.517 19.4886L120.168 19.4187C119.283 19.252 118.84 18.8343 118.84 18.1657C118.84 17.8095 118.976 17.5274 119.246 17.3185C119.518 17.1055 119.893 16.9985 120.372 16.9985C120.917 16.9985 121.329 17.1156 121.608 17.3472C121.891 17.5796 122.04 17.9046 122.056 18.3223H121.294C121.279 18.0865 121.2 17.9122 121.057 17.8002C120.917 17.6874 120.693 17.6318 120.383 17.6318C120.143 17.6318 119.96 17.6764 119.832 17.7649C119.771 17.8061 119.721 17.8624 119.688 17.9285C119.654 17.9946 119.638 18.0681 119.641 18.1421C119.641 18.3089 119.699 18.4369 119.816 18.5253C119.934 18.6137 120.146 18.6895 120.447 18.7518L120.808 18.8209C121.291 18.9177 121.639 19.0625 121.852 19.2562C122.068 19.4457 122.177 19.7093 122.177 20.0453C122.177 20.4478 122.03 20.7611 121.736 20.9851C121.441 21.2057 121.032 21.3169 120.506 21.3169ZM124.664 21.2234H123.88V17.092H124.664V21.2234ZM128.26 17.092V17.7943H126.125V18.7686H128.07V19.4423H126.125V21.2234H125.341V17.092H128.26ZM66.0111 23.6377L66.4633 22.8941H67.3281L65.7787 25.3952V27.0263H64.9956V25.3952L63.4343 22.8941H64.3227L64.7808 23.6436C65.1513 24.2617 65.3593 24.6103 65.4014 24.6878C65.5059 24.5025 65.7088 24.1514 66.0111 23.6377ZM70.6039 26.527C70.2249 26.9211 69.7264 27.119 69.1066 27.119C68.4885 27.119 67.9892 26.9211 67.6102 26.527C67.2313 26.1286 67.0418 25.6065 67.0418 24.9606C67.0418 24.3139 67.2313 23.7918 67.6102 23.3935C67.9892 22.9994 68.4885 22.8015 69.1075 22.8015C69.7264 22.8015 70.2249 22.9994 70.6039 23.3935C70.9794 23.7842 71.1672 24.3063 71.1672 24.9598C71.1672 25.6141 70.9794 26.1371 70.6039 26.527ZM67.8595 24.9606C67.8595 25.4129 67.9732 25.7707 68.2022 26.0335C68.4296 26.2971 68.7319 26.4284 69.1075 26.4284C69.4864 26.4284 69.7896 26.2971 70.0178 26.0335C70.2426 25.7741 70.3546 25.4171 70.3546 24.9598C70.3546 24.5034 70.2426 24.1463 70.0178 23.887C69.7904 23.6234 69.4864 23.492 69.1066 23.492C68.7319 23.492 68.4304 23.6234 68.2022 23.887C67.9732 24.1497 67.8595 24.5076 67.8595 24.9598V24.9606ZM73.3407 27.1131C72.8026 27.1131 72.379 26.9699 72.0691 26.6836C71.7643 26.3939 71.611 25.9889 71.611 25.471V22.8941H72.3942V25.4769C72.3942 25.7901 72.4758 26.0276 72.6384 26.1901C72.8009 26.3526 73.0341 26.4343 73.3407 26.4343C73.6463 26.4343 73.8796 26.3526 74.0421 26.1901C74.2047 26.0276 74.2863 25.7901 74.2863 25.4769V22.8941H75.0695V25.471C75.0695 25.9973 74.9171 26.4032 74.6114 26.6895C74.3057 26.9716 73.883 27.1131 73.3407 27.1131ZM75.5705 23.6722V22.8941H76.3713V23.7362C76.3713 24.2541 76.1372 24.5211 75.669 24.5362L75.5705 24.5421V24.1421L75.6632 24.1362C75.8299 24.1244 75.9133 24.0015 75.9133 23.7649V23.6722H75.5705ZM80.1658 25.9291L80.2003 26.5438C80.2045 26.7417 80.2467 26.9017 80.3283 27.0263H79.5216C79.4517 26.9101 79.4147 26.7451 79.4113 26.5329L79.3945 26.0798C79.3818 25.8289 79.3246 25.6545 79.2201 25.5577C79.1191 25.4566 78.9566 25.407 78.7317 25.407H77.7111V27.0263H76.928V22.8941H78.8016C79.2622 22.8941 79.6201 22.9994 79.8753 23.2082C80.1304 23.4171 80.2584 23.7009 80.2584 24.0604C80.2584 24.5556 80.0285 24.8849 79.5679 25.0474C79.7768 25.1131 79.9258 25.2175 80.0142 25.3606C80.1069 25.4996 80.1574 25.6891 80.1658 25.9291ZM77.7111 23.5383V24.7922H78.7553C78.9759 24.7922 79.146 24.7375 79.2665 24.6297C79.3902 24.5169 79.4517 24.3569 79.4517 24.148C79.4517 23.951 79.3877 23.7994 79.2606 23.695C79.1368 23.5905 78.9583 23.5383 78.7267 23.5383H77.7111ZM83.8331 22.8941V23.5964H81.5696V24.5716H83.6184V25.2453H81.5696V26.3232H83.8213V27.0263H80.7864V22.8941H83.8331ZM89.3581 27.0263H88.5286L88.2036 26.1152H86.3931L86.0739 27.0263H85.2672L86.8402 22.8941H87.7564L89.3581 27.0263ZM86.788 25.0011L86.6314 25.4474H87.9652L87.8027 25.0011C87.668 24.6558 87.497 24.1842 87.2924 23.5846C87.1299 24.0646 86.9615 24.5362 86.788 25.0011ZM92.5791 22.8941V23.5964H90.4435V24.5716H92.3871V25.2453H90.4435V27.0263H89.6604V22.8941H92.5791ZM96.2413 25.9291L96.2758 26.5438C96.28 26.7417 96.3221 26.9017 96.4038 27.0263H95.5971C95.5272 26.9101 95.491 26.7451 95.4868 26.5329L95.4691 26.0798C95.4582 25.8289 95.4001 25.6545 95.2956 25.5577C95.1946 25.4566 95.0321 25.407 94.8081 25.407H93.7866V27.0263H93.0035V22.8941H94.878C95.3377 22.8941 95.6956 22.9994 95.9508 23.2082C96.2059 23.4171 96.3339 23.7009 96.3339 24.0604C96.3339 24.5556 96.104 24.8849 95.6434 25.0474C95.8523 25.1131 96.0013 25.2175 96.0906 25.3606C96.1832 25.4996 96.2337 25.6891 96.2413 25.9291ZM93.7866 23.5383V24.7922H94.8308C95.0514 24.7922 95.2215 24.7375 95.3419 24.6297C95.4657 24.5169 95.5272 24.3569 95.5272 24.148C95.5272 23.951 95.4632 23.7994 95.3361 23.695C95.2123 23.5905 95.0346 23.5383 94.8022 23.5383H93.7866ZM100.56 27.0263H99.7309L99.4059 26.1152H97.5954L97.2762 27.0263H96.4703L98.0425 22.8941H98.9596L100.56 27.0263ZM97.9903 25.0011L97.8337 25.4474H99.1684L99.0059 25.0011C98.8255 24.5326 98.655 24.0604 98.4947 23.5846C98.3322 24.0646 98.1638 24.5362 97.9903 25.0011ZM101.646 27.0263H100.863V22.8941H101.646V27.0263ZM102.325 22.8941H103.903C104.565 22.8941 105.075 23.0785 105.434 23.4457C105.795 23.8171 105.974 24.3215 105.974 24.9598C105.974 25.5981 105.795 26.1017 105.434 26.4689C105.075 26.8394 104.565 27.0263 103.903 27.0263H102.325V22.8941ZM103.108 26.3526H103.892C104.298 26.3526 104.611 26.2347 104.831 25.999C105.052 25.759 105.162 25.4129 105.162 24.9598C105.162 24.5076 105.052 24.1632 104.831 23.9274C104.611 23.6874 104.298 23.5678 103.892 23.5678H103.108V26.3526ZM111.119 26.527C110.74 26.9211 110.241 27.119 109.622 27.119C109.003 27.119 108.504 26.9211 108.125 26.527C107.746 26.1286 107.556 25.6065 107.556 24.9606C107.556 24.3139 107.746 23.7918 108.125 23.3935C108.504 22.9994 109.003 22.8015 109.622 22.8015C110.241 22.8015 110.74 22.9994 111.119 23.3935C111.494 23.7842 111.682 24.3063 111.682 24.9598C111.682 25.6141 111.494 26.1371 111.119 26.527ZM108.374 24.9606C108.374 25.4129 108.489 25.7707 108.717 26.0335C108.945 26.2971 109.247 26.4284 109.622 26.4284C110.001 26.4284 110.305 26.2971 110.533 26.0335C110.757 25.7741 110.87 25.4171 110.87 24.9598C110.87 24.5034 110.757 24.1463 110.533 23.887C110.305 23.6234 110.001 23.492 109.622 23.492C109.247 23.492 108.945 23.6234 108.717 23.887C108.489 24.1497 108.374 24.5076 108.374 24.9598V24.9606ZM115.103 22.8941V23.5964H112.968V24.5716H114.911V25.2453H112.968V27.0263H112.185V22.8941H115.103ZM118.608 27.119C118.012 27.119 117.53 26.9236 117.162 26.5329C116.792 26.1421 116.606 25.6175 116.606 24.9598C116.606 24.2987 116.789 23.7724 117.156 23.3817C117.52 22.9943 118.004 22.8015 118.608 22.8015C119.091 22.8015 119.502 22.9312 119.843 23.1905C120.184 23.4499 120.396 23.8246 120.482 24.3164H119.688C119.617 24.0453 119.487 23.8406 119.299 23.7017C119.112 23.5585 118.883 23.4861 118.608 23.4861C118.241 23.4861 117.95 23.6175 117.737 23.8811C117.528 24.1404 117.424 24.5 117.424 24.9598C117.424 25.4246 117.528 25.7859 117.737 26.0453C117.946 26.3046 118.236 26.4343 118.608 26.4343C118.894 26.4343 119.139 26.3493 119.344 26.1792C119.55 26.0082 119.673 25.7724 119.716 25.471H120.499C120.45 25.9973 120.244 26.4032 119.884 26.6895C119.528 26.9758 119.103 27.119 118.608 27.119ZM123.688 24.5539V22.895H124.472V27.0263H123.688V25.2621H121.768V27.0263H120.984V22.8941H121.768V24.5539H123.688ZM128.859 27.0263H128.029L127.704 26.1152H125.895L125.575 27.0263H124.769L126.341 22.8941H127.258L128.859 27.0263ZM126.288 25.0011L126.132 25.4474H127.467L127.304 25.0011C127.169 24.6558 126.998 24.1842 126.794 23.5846C126.631 24.0646 126.462 24.5362 126.288 25.0011ZM131.894 23.9737V22.8941H132.648V27.0263H131.778L130.629 25.1863C130.367 24.7826 130.121 24.3686 129.893 23.9451C129.907 24.3779 129.916 25.0449 129.916 25.9467V27.0263H129.16V22.8941H130.031L131.185 24.7341C131.531 25.2907 131.774 25.7051 131.917 25.9754C131.9 25.3083 131.892 24.641 131.894 23.9737ZM135.304 25.4305V24.7981H137.15V27.0263H136.581L136.471 26.4806C136.173 26.9059 135.724 27.119 135.125 27.119C134.529 27.119 134.051 26.9211 133.691 26.527C133.332 26.132 133.152 25.6099 133.152 24.9606C133.152 24.3105 133.335 23.7859 133.702 23.3876C134.07 22.9969 134.567 22.8015 135.195 22.8015C135.713 22.8015 136.144 22.9329 136.488 23.1964C136.828 23.4592 137.034 23.8171 137.103 24.2693H136.297C136.246 24.0365 136.109 23.8314 135.914 23.695C135.721 23.556 135.483 23.4861 135.2 23.4861C134.822 23.4861 134.521 23.6175 134.3 23.8811C134.08 24.1438 133.969 24.5042 133.969 24.9598C133.969 25.4171 134.082 25.7766 134.306 26.0394C134.53 26.3021 134.838 26.4343 135.229 26.4343C135.538 26.4343 135.804 26.3417 136.024 26.1556C136.245 25.9703 136.364 25.7278 136.384 25.4305H135.304ZM140.809 22.8941V23.5964H138.546V24.5716H140.594V25.2453H138.546V26.3232H140.797V27.0263H137.762V22.8941H140.809Z" fill="#E9EAE2"/>
</g>
</g>
</g>
<defs>
<clipPath id="clip0_56_320">
<rect width="161.91" height="32" fill="white" transform="translate(0.5 0.5)"/>
</clipPath>
<clipPath id="clip1_56_320">
<rect width="161.681" height="32" fill="white" transform="translate(0.614502 0.5)"/>
</clipPath>
</defs>
</svg>
