<svg width="74" height="32" viewBox="0 0 74 32" fill="none" xmlns="http://www.w3.org/2000/svg">
<g clip-path="url(#clip0_56_362)">
<g clip-path="url(#clip1_56_362)">
<mask id="mask0_56_362" style="mask-type:luminance" maskUnits="userSpaceOnUse" x="0" y="0" width="25" height="23">
<path d="M0.986816 0H24.711V22.069H0.986816V0Z" fill="white"/>
</mask>
<g mask="url(#mask0_56_362)">
<path d="M17.2036 21.7103H2.09026C1.79761 21.7103 1.51695 21.5941 1.31001 21.3872C1.10307 21.1802 0.986816 20.8995 0.986816 20.6069V7.7611C0.986878 7.59732 1.0234 7.4356 1.09373 7.28768C1.16406 7.13977 1.26644 7.00936 1.39344 6.90593L8.06544 1.46759C8.78599 0.88 9.86571 1.3931 9.86571 2.32276V6.15503C9.86571 7.08745 10.9515 7.6 11.6715 7.00634L19.3344 0.686345C19.5569 0.502781 19.8424 0.413622 20.1298 0.437959C20.4172 0.462295 20.6836 0.598193 20.8721 0.816551L24.0985 4.55448C24.2834 4.76883 24.3788 5.046 24.365 5.3287C24.3512 5.61139 24.2294 5.87799 24.0246 6.07338L17.543 12.2577C16.8224 12.9451 17.309 14.1594 18.3043 14.1594H22.2315C23.1981 14.1594 23.6974 15.3148 23.0354 16.0188L18.0075 21.3639C17.9043 21.4736 17.7798 21.561 17.6415 21.6208C17.5033 21.6806 17.3543 21.7114 17.2036 21.7114V21.7103Z" fill="#916DCF"/>
</g>
<mask id="mask1_56_362" style="mask-type:luminance" maskUnits="userSpaceOnUse" x="24" y="0" width="26" height="24">
<path d="M24.7109 0H49.5385V23.1724H24.7109V0Z" fill="white"/>
</mask>
<g mask="url(#mask1_56_362)">
<path d="M41.719 22.2621H26.6056C26.313 22.2621 26.0323 22.1458 25.8254 21.9389C25.6185 21.732 25.5022 21.4513 25.5022 21.1586V8.31284C25.5022 8.1491 25.5386 7.98741 25.6089 7.83949C25.6791 7.69158 25.7814 7.56115 25.9083 7.45767L32.5808 2.01932C33.3019 1.43174 34.3816 1.94484 34.3816 2.87449V6.70677C34.3816 7.63918 35.4674 8.15174 36.1869 7.55808L43.8503 1.23808C44.0728 1.05469 44.3582 0.965629 44.6454 0.989963C44.9327 1.0143 45.199 1.15009 45.3874 1.36829L48.6139 5.10622C48.7988 5.3205 48.8943 5.59763 48.8806 5.88032C48.867 6.16302 48.7452 6.42966 48.5405 6.62512L42.0583 12.8094C41.3378 13.4968 41.8244 14.7112 42.8197 14.7112H46.7463C47.7135 14.7112 48.2128 15.8665 47.5502 16.5705L42.5223 21.9156C42.4192 22.0253 42.2946 22.1128 42.1564 22.1726C42.0181 22.2323 41.8691 22.2632 41.7185 22.2632L41.719 22.2621Z" stroke="#916DCF" stroke-width="1.10345"/>
</g>
<mask id="mask2_56_362" style="mask-type:luminance" maskUnits="userSpaceOnUse" x="49" y="0" width="25" height="23">
<path d="M49.5386 0H73.2627V22.069H49.5386V0Z" fill="white"/>
</mask>
<g mask="url(#mask2_56_362)">
<path d="M65.7554 21.7103H50.642C50.3494 21.7103 50.0687 21.5941 49.8618 21.3872C49.6548 21.1802 49.5386 20.8995 49.5386 20.6069V7.7611C49.5386 7.59736 49.575 7.43567 49.6452 7.28776C49.7155 7.13984 49.8177 7.00942 49.9446 6.90593L56.6177 1.46759C57.3383 0.88 58.418 1.3931 58.418 2.32276V6.15503C58.418 7.08745 59.5044 7.6 60.2238 7.00634L67.8862 0.686345C68.1086 0.502781 68.3941 0.413622 68.6815 0.437959C68.9689 0.462295 69.2354 0.598193 69.4238 0.816551L72.6503 4.55448C72.8351 4.76883 72.9305 5.046 72.9168 5.3287C72.903 5.61139 72.7811 5.87799 72.5764 6.07338L66.0947 12.2571C65.3742 12.9446 65.8608 14.1589 66.8566 14.1589H70.7833C71.7499 14.1589 72.2492 15.3142 71.5871 16.0182L66.5593 21.3633C66.4561 21.473 66.3315 21.5605 66.1933 21.6203C66.055 21.68 65.906 21.7109 65.7554 21.7109V21.7103Z" fill="#916DCF"/>
</g>
<path d="M2.85901 26.067V30.9327H2V26.067H2.85901ZM6.77398 26.067L4.07987 28.3359L2.56482 29.5159L2.42266 28.8275L3.56295 27.8847L5.74088 26.067H6.77398ZM5.94613 30.9327L3.54546 28.56L4.05783 28.0484L6.97087 30.9327H5.94613ZM11.8482 30.408V30.9327H8.41446V30.408H11.8482ZM8.58779 26.067V30.9327H7.72877V26.067H8.58779ZM11.3944 28.159V28.6838H8.41446V28.159H11.3944ZM11.8041 26.067V26.5946H8.4137V26.067H11.8041ZM17.0335 30.408V30.9327H13.5989V30.408H17.0335ZM13.7723 26.067V30.9327H12.9133V26.067H13.7723ZM16.5789 28.159V28.6838H13.5989V28.159H16.5789ZM16.9894 26.067V26.5946H13.5989V26.067H16.9894ZM20.49 29.0243H18.7568V28.4996H20.49C20.8245 28.4996 21.0967 28.4596 21.305 28.3798C21.5007 28.3081 21.6599 28.1906 21.7588 28.045C21.8576 27.9024 21.9063 27.7398 21.9063 27.5573C21.9063 27.3902 21.8569 27.2334 21.7588 27.0862C21.6597 26.9359 21.5012 26.8122 21.305 26.732C21.0967 26.6408 20.8253 26.5951 20.4893 26.5951H18.9575V30.9327H18.0977V26.067H20.4893C20.9796 26.067 21.3939 26.1303 21.7322 26.2575C22.0712 26.3841 22.3282 26.5603 22.503 26.7851C22.6779 27.0081 22.766 27.263 22.766 27.5505C22.766 27.8625 22.6779 28.1288 22.503 28.349C22.3224 28.5735 22.0529 28.7501 21.7322 28.8543C21.3939 28.9678 20.9796 29.0243 20.49 29.0243ZM29.572 29.703C29.572 29.5889 29.5477 29.4891 29.5005 29.4019C29.4505 29.307 29.3675 29.2239 29.2603 29.1612C29.1169 29.0765 28.9579 29.0079 28.7883 28.9575C28.5412 28.8803 28.2881 28.8144 28.0303 28.7602C27.7343 28.6956 27.4443 28.6163 27.1622 28.5229C26.9245 28.4434 26.7015 28.3412 26.4986 28.2189C26.3222 28.1126 26.1778 27.9795 26.0751 27.8282C25.9742 27.6709 25.9239 27.498 25.9284 27.3235C25.9258 27.1424 25.9786 26.9633 26.0828 26.8C26.1869 26.6366 26.3395 26.4934 26.529 26.3812C26.7259 26.2609 26.9585 26.1668 27.2283 26.1001C27.5209 26.0308 27.8263 25.9971 28.133 26.0002C28.6195 26.0002 29.033 26.0704 29.3721 26.2107C29.7126 26.3487 29.9726 26.5301 30.1505 26.7554C30.3292 26.9778 30.4181 27.2162 30.4181 27.4706H29.5629C29.5629 27.2881 29.5112 27.1261 29.407 26.9858C29.2994 26.8406 29.1345 26.7238 28.935 26.6516C28.7244 26.5695 28.4568 26.5278 28.133 26.5278C27.8274 26.5278 27.575 26.562 27.3758 26.6316C27.1936 26.69 27.0385 26.7877 26.9304 26.9122C26.8338 27.0347 26.7846 27.1749 26.7882 27.3172C26.7882 27.4193 26.8163 27.5128 26.8726 27.5972C26.9319 27.6799 27.0223 27.7569 27.144 27.8282C27.2694 27.8995 27.4268 27.9651 27.6168 28.025C27.8091 28.0855 28.0395 28.1431 28.3071 28.199C28.675 28.2771 28.9927 28.3644 29.2603 28.4596C29.5272 28.5554 29.7468 28.6638 29.9194 28.7836C30.0943 28.9022 30.2235 29.0368 30.3071 29.1885C30.393 29.3374 30.4363 29.5068 30.4363 29.6962C30.4363 29.8946 30.3831 30.0737 30.2759 30.234C30.1675 30.396 30.0103 30.5368 29.8168 30.6452C29.6176 30.7593 29.3789 30.8471 29.0999 30.9093C28.8232 30.9692 28.5146 30.9994 28.1725 30.9994C27.873 30.9994 27.578 30.9686 27.2869 30.9059C27.0052 30.8458 26.7388 30.751 26.4986 30.6253C26.268 30.5038 26.0751 30.3464 25.933 30.1639C25.7894 29.9674 25.7171 29.7462 25.7232 29.5222H26.5784C26.5784 29.6893 26.6217 29.833 26.7076 29.9534C26.7943 30.0715 26.9113 30.1701 27.0596 30.2477C27.2116 30.3253 27.3819 30.3834 27.572 30.4211C27.765 30.457 27.965 30.4747 28.1725 30.4747C28.4728 30.4747 28.7274 30.4439 28.935 30.3812C29.1425 30.3184 29.2999 30.23 29.407 30.1142C29.5173 29.9979 29.572 29.861 29.572 29.703ZM35.4467 29.3853H36.3019C36.2645 29.6761 36.1445 29.9575 35.95 30.2106C35.7599 30.4536 35.4916 30.6464 35.1442 30.789C34.7968 30.9293 34.3635 31 33.8435 31C33.4634 31 33.1175 30.9458 32.8058 30.8392C32.4986 30.7334 32.2261 30.5782 32.0076 30.3846C31.7764 30.1743 31.6011 29.9327 31.4915 29.6728C31.3684 29.3719 31.3084 29.0584 31.3136 28.7437V28.2589C31.3136 27.9184 31.3729 27.6098 31.4915 27.3337C31.6131 27.0548 31.7872 26.8164 32.013 26.6179C32.2387 26.4212 32.5203 26.2649 32.837 26.1605C33.1785 26.0505 33.5472 25.9959 33.9188 26.0002C34.4091 26.0002 34.8234 26.0687 35.1617 26.2073C35.5007 26.3453 35.763 26.5369 35.95 26.7822C36.14 27.0246 36.2579 27.3069 36.3019 27.6275H35.4467C35.4149 27.4241 35.3367 27.2264 35.2156 27.0429C35.109 26.8829 34.9416 26.7503 34.7344 26.6619C34.5261 26.5723 34.2548 26.5278 33.9195 26.5278C33.6306 26.5278 33.3775 26.5695 33.1578 26.6516C32.9406 26.7342 32.7528 26.8545 32.6097 27.0024C32.4559 27.1673 32.344 27.3522 32.2798 27.5476C32.2026 27.7781 32.1653 28.015 32.1688 28.2526V28.7437C32.1688 28.9821 32.2015 29.2057 32.2669 29.4155C32.3353 29.6249 32.4372 29.8091 32.574 29.9671C32.7053 30.1214 32.8841 30.2497 33.0955 30.3412C33.306 30.4302 33.5554 30.4747 33.8435 30.4747C34.2084 30.4747 34.4995 30.4314 34.7162 30.3447C34.9336 30.2574 35.0963 30.1331 35.2065 29.9699C35.319 29.8074 35.3996 29.6129 35.4467 29.3853ZM37.4734 26.067H39.6209C40.1074 26.067 40.5187 26.1223 40.8547 26.2341C41.193 26.3453 41.4499 26.5101 41.6248 26.7286C41.8034 26.9448 41.8924 27.2111 41.8924 27.5271C41.8924 27.7495 41.8316 27.9537 41.7099 28.1391C41.5906 28.3216 41.4188 28.4773 41.193 28.6068C40.953 28.7399 40.6805 28.8364 40.391 28.8908L40.1508 28.961H38.1332L38.1241 28.4362H39.6475C39.9562 28.4362 40.2131 28.3963 40.4176 28.3165C40.6114 28.2418 40.7724 28.1267 40.8813 27.9851C40.9855 27.8471 41.0372 27.6942 41.0372 27.5271C41.0421 27.3568 40.9915 27.1882 40.8897 27.036C40.7873 26.8926 40.6245 26.7787 40.4267 26.712C40.2192 26.6339 39.9501 26.5946 39.6209 26.5946H38.3332V30.9327H37.4742L37.4734 26.067ZM41.2637 30.9327L39.6863 28.7271L40.5818 28.7237L42.1812 30.8928V30.9327H41.2637ZM48.0871 28.3461V28.6535C48.0871 29.0186 48.0263 29.3465 47.9047 29.6363C47.7831 29.9254 47.6082 30.1718 47.3794 30.3749C47.1552 30.5745 46.8734 30.7333 46.5554 30.8392C46.2181 30.9491 45.8534 31.0037 45.4858 30.9994C45.1229 31.0025 44.7633 30.9479 44.4306 30.8392C44.1123 30.732 43.8294 30.5735 43.602 30.3749C43.3594 30.1576 43.176 29.9066 43.0623 29.6363C42.9296 29.3184 42.8652 28.9866 42.8715 28.6535V28.3456C42.8715 27.9805 42.9338 27.6543 43.0585 27.3668C43.1862 27.0771 43.3656 26.8307 43.5975 26.6282C43.8293 26.4229 44.1037 26.2672 44.4215 26.1605C44.7544 26.0517 45.1143 25.9971 45.4774 26.0002C45.8727 26.0002 46.2285 26.0533 46.5462 26.1599C46.867 26.2672 47.1415 26.4234 47.3703 26.6282C47.6014 26.8313 47.7785 27.0771 47.9001 27.3668C48.0248 27.6543 48.0871 27.9805 48.0871 28.3461ZM47.2365 28.6535V28.3398C47.2415 28.0805 47.2012 27.8219 47.1164 27.5704C47.0519 27.3684 46.9355 27.1777 46.7735 27.0092C46.6285 26.8618 46.437 26.7437 46.2163 26.6653C45.985 26.5848 45.7324 26.5446 45.4774 26.5478C45.2098 26.5478 44.9681 26.5871 44.7507 26.6653C44.5331 26.7457 44.344 26.8635 44.1988 27.0092C44.0361 27.1783 43.9168 27.3686 43.8468 27.5704C43.7632 27.7934 43.7221 28.0495 43.7221 28.3393V28.653C43.7221 28.9456 43.7639 29.2039 43.8468 29.4287C43.9304 29.6511 44.049 29.8399 44.2033 29.9933C44.3607 30.145 44.5462 30.2597 44.7598 30.3378C44.9764 30.416 45.2189 30.4547 45.4858 30.4547C45.7655 30.4547 46.0133 30.416 46.23 30.3378C46.4466 30.2597 46.6291 30.145 46.7773 29.9933C46.9294 29.8399 47.0434 29.6511 47.1209 29.4287C47.1977 29.2039 47.2365 28.9456 47.2365 28.653V28.6535ZM53.3073 30.408V30.9327H50.0659V30.408H53.3073ZM50.2339 26.067V30.9327H49.3749V26.067H50.2339ZM58.225 30.408V30.9327H54.982V30.408H58.225ZM55.1516 26.0675V30.9327H54.2925V26.067L55.1516 26.0675ZM60.1315 26.0675V30.9327H59.2725V26.067L60.1315 26.0675ZM66.6844 26.0675V30.9327H65.8193L62.555 27.1797V30.9327H61.6953V26.067H62.5543L65.833 29.8296V26.0675H66.6844ZM73 28.5104V30.2916C72.8905 30.404 72.7617 30.5051 72.6169 30.5922C72.442 30.7017 72.1995 30.7975 71.8909 30.8797C71.5845 30.9595 71.19 31 70.7058 31C70.3105 31 69.9471 30.9487 69.6149 30.846C69.2881 30.7429 68.9948 30.588 68.7551 30.392C68.5051 30.1795 68.3141 29.9317 68.1933 29.6631C68.0576 29.3482 67.9916 29.0187 67.998 28.6878V28.3091C67.998 27.9463 68.0542 27.6218 68.1667 27.3366C68.283 27.0514 68.4518 26.8101 68.6745 26.6117C68.8946 26.4126 69.1758 26.2566 69.494 26.1571C69.8179 26.0521 70.1888 26.0002 70.6077 26.0002C71.1041 26.0002 71.5184 26.0647 71.8506 26.1942C72.1858 26.3208 72.4473 26.4965 72.6344 26.7217C72.8244 26.947 72.946 27.2031 72.9992 27.4906H72.1402C72.1045 27.3205 72.0258 27.1571 71.9084 27.0092C71.7922 26.8619 71.6241 26.7415 71.4226 26.6613C71.212 26.5723 70.9407 26.5278 70.6077 26.5278C70.3082 26.5278 70.0482 26.5695 69.8285 26.6516C69.6102 26.7331 69.4231 26.855 69.285 27.0058C69.1331 27.1755 69.0244 27.3648 68.9642 27.5642C68.8957 27.7826 68.8615 28.0284 68.8615 28.3028V28.6866C68.8615 28.9678 68.9049 29.2182 68.9908 29.4389C69.0797 29.6597 69.2067 29.8479 69.3693 30.0036C69.5328 30.1576 69.7274 30.2745 69.9532 30.3544C70.1812 30.4348 70.4344 30.4747 70.7103 30.4747C71.0159 30.4747 71.2637 30.4559 71.4538 30.4177C71.6109 30.3883 71.7611 30.3412 71.8992 30.2779C71.9892 30.233 72.0717 30.1802 72.1448 30.1205V29.0311H70.6434V28.5098L73 28.5104Z" fill="#916DCF"/>
</g>
</g>
<defs>
<clipPath id="clip0_56_362">
<rect width="72.95" height="32" fill="white" transform="translate(0.600098)"/>
</clipPath>
<clipPath id="clip1_56_362">
<rect width="72.8276" height="32" fill="white" transform="translate(0.661377)"/>
</clipPath>
</defs>
</svg>
