<svg width="152" height="205" viewBox="0 0 152 205" fill="none" xmlns="http://www.w3.org/2000/svg">
<path d="M0.980674 199.836C3.90161 204.687 13.9664 207.89 46.9349 198.984C55.881 196.566 62.4789 188.876 63.6129 179.563L83.8227 13.1344C80.8235 40.1521 72.9312 80.0487 49.2945 121.041C24.6861 163.777 -5.88449 188.389 0.980674 199.836Z" fill="#1F2021"/>
<path fill-rule="evenodd" clip-rule="evenodd" d="M0.980674 199.836C3.90161 204.687 13.9664 207.89 46.9349 198.984C55.881 196.566 62.4789 188.876 63.6129 179.563L83.8227 13.1344C80.8235 40.1521 72.9312 80.0487 49.2945 121.041C24.6861 163.777 -5.88449 188.389 0.980674 199.836Z" fill="#1F2021"/>
<path d="M151.016 5.43111C148.095 0.578152 138.03 -2.62534 105.062 6.28258C96.1155 8.70142 89.5157 16.3913 88.3836 25.704L68.1719 192.133C71.173 165.115 79.0653 125.218 102.702 84.2259C127.324 41.4904 157.894 16.8781 151.016 5.43111Z" fill="#1F2021"/>
<path fill-rule="evenodd" clip-rule="evenodd" d="M151.016 5.43111C148.095 0.578152 138.03 -2.62534 105.062 6.28258C96.1155 8.70142 89.5157 16.3913 88.3836 25.704L68.1719 192.133C71.173 165.115 79.0653 125.218 102.702 84.2259C127.324 41.4904 157.894 16.8781 151.016 5.43111Z" fill="#1F2021"/>
</svg>
